<svg viewBox="0 0 31 31" xmlns="http://www.w3.org/2000/svg">
<path d="M29.8053 11.3642C29.8717 11.3643 29.9374 11.351 29.9987 11.325C30.0601 11.2991 30.1158 11.261 30.1627 11.213C30.2096 11.1651 30.2468 11.1081 30.2722 11.0453C30.2975 10.9826 30.3106 10.9154 30.3105 10.8475V8.78335C30.3105 8.77652 30.3068 8.77155 30.3068 8.76472C30.3051 8.70836 30.294 8.65271 30.274 8.60015C30.2747 8.59324 30.2732 8.58629 30.2698 8.58028C30.2451 8.524 30.2108 8.47269 30.1684 8.42876C30.1536 8.41492 30.138 8.40206 30.1217 8.39026C30.0992 8.36714 30.0746 8.34634 30.0482 8.32816L15.399 0.0621096C15.3247 0.0199723 15.2411 -0.00213623 15.1562 -0.00213623C15.0712 -0.00213623 14.9876 0.0199723 14.9133 0.0621096L0.262304 8.33126C0.236012 8.34962 0.211421 8.37041 0.18884 8.39336C0.172469 8.40516 0.156854 8.41802 0.14209 8.43186C0.0997383 8.47579 0.0654011 8.5271 0.0406965 8.58339C0.0413256 8.5903 0.0398406 8.59724 0.0364465 8.60326C0.0164662 8.65581 0.00537924 8.71146 0.00366073 8.76782C0.00366073 8.77465 1.78619e-05 8.77962 1.78619e-05 8.78645V10.8531C0.0014569 10.9892 0.0553119 11.1192 0.149889 11.2148C0.244467 11.3105 0.372131 11.3642 0.505162 11.3642H2.02302V26.8642H0.505162C0.438437 26.8643 0.372388 26.8779 0.310819 26.9042C0.24925 26.9305 0.193379 26.969 0.146424 27.0175C0.0994692 27.066 0.0623591 27.1235 0.0372319 27.1867C0.0121047 27.2499 -0.000542891 27.3176 1.78619e-05 27.3858V30.4858C1.78619e-05 30.6229 0.0532382 30.7543 0.147971 30.8512C0.242704 30.9481 0.371189 31.0025 0.505162 31.0025H29.8053C29.8717 31.0026 29.9374 30.9893 29.9987 30.9633C30.0601 30.9374 30.1158 30.8993 30.1627 30.8514C30.2096 30.8034 30.2468 30.7464 30.2722 30.6837C30.2975 30.6209 30.3106 30.5537 30.3105 30.4858V27.3858C30.3105 27.2488 30.2573 27.1174 30.1625 27.0205C30.0678 26.9236 29.9393 26.8692 29.8053 26.8692H28.2929V11.3642H29.8053ZM15.1562 1.10662L27.8455 8.26668H2.46867L15.1562 1.10662ZM29.3026 27.9V29.9667H1.01213V27.9H29.3026ZM3.03574 26.8667V11.3642H5.05328V26.8642L3.03574 26.8667ZM6.0666 26.8667V11.3642H24.2487V26.8642L6.0666 26.8667ZM25.2621 26.8667V11.3642H27.2826V26.8642L25.2621 26.8667ZM1.01213 10.3333V9.30001H29.3002V10.3333H1.01213Z" />
<path d="M8.13362 11.3046L8.07422 27.128L9.04564 27.1318L9.10505 11.3084L8.13362 11.3046Z" />
<path d="M21.2606 11.3321L21.2012 27.1555L22.1726 27.1593L22.232 11.3359L21.2606 11.3321Z" />
<path d="M15.1463 13.3998C14.0579 13.3997 12.9939 13.7297 12.0888 14.3481C11.1837 14.9665 10.4783 15.8455 10.0617 16.874C9.64504 17.9025 9.53598 19.0343 9.74825 20.1262C9.96052 21.2181 10.4846 22.2211 11.2542 23.0083C12.0238 23.7956 13.0044 24.3317 14.0719 24.549C15.1394 24.7662 16.246 24.6548 17.2516 24.2288C18.2572 23.8027 19.1167 23.0813 19.7214 22.1557C20.3261 21.23 20.6489 20.1417 20.6489 19.0285C20.649 18.2893 20.5067 17.5574 20.2302 16.8745C19.9537 16.1916 19.5484 15.5711 19.0374 15.0484C18.5265 14.5257 17.9199 14.1111 17.2522 13.8283C16.5846 13.5454 15.869 13.3998 15.1463 13.3998ZM15.1463 23.7902C14.2254 23.7904 13.3251 23.5111 12.5593 22.9879C11.7935 22.4646 11.1966 21.7209 10.8441 20.8506C10.4916 19.9804 10.3993 19.0228 10.579 18.0989C10.7586 17.175 11.2021 16.3264 11.8533 15.6603C12.5045 14.9942 13.3342 14.5407 14.2375 14.3569C15.1408 14.1732 16.077 14.2675 16.9279 14.6281C17.7787 14.9886 18.5059 15.5991 19.0175 16.3824C19.529 17.1657 19.802 18.0865 19.8019 19.0285C19.8019 20.2914 19.3114 21.5025 18.4383 22.3956C17.5652 23.2886 16.3811 23.7902 15.1463 23.7902Z" />
<path d="M14.3684 20.4096H16.9591C17.1594 20.4096 17.2201 20.481 17.2201 20.6853V20.9337C17.2201 21.138 17.1594 21.2094 16.9591 21.2094H14.3684V21.8764C14.3684 22.0987 14.2815 22.1788 14.0648 22.1788H13.5694C13.352 22.1788 13.2737 22.0987 13.2737 21.8764V21.21H12.9434C12.7436 21.21 12.6738 21.1386 12.6738 20.9343V20.6859C12.6738 20.4816 12.7436 20.4102 12.9434 20.4102H13.2737V16.1688C13.2737 15.9465 13.352 15.8664 13.5694 15.8664H15.9512C17.177 15.8664 17.925 16.6048 17.925 17.8405C17.925 19.0763 17.177 19.8054 15.9512 19.8054H14.3684V20.4096ZM14.3684 18.7646H15.8462C16.4369 18.7646 16.7848 18.4087 16.7848 17.8399C16.7848 17.2711 16.4369 16.9084 15.8462 16.9084H14.3684V18.7646Z" />
</svg>
