<svg viewBox="0 0 30 30" xmlns="http://www.w3.org/2000/svg">
<path d="M25.6934 0H4.30664C3.82125 0 3.42773 0.393516 3.42773 0.878906V29.1211C3.42773 29.4442 3.60504 29.7413 3.88945 29.8947C4.17387 30.0481 4.51951 30.033 4.78951 29.8555L6.97998 28.4152L9.17045 29.8555C9.46354 30.0482 9.84311 30.0482 10.1362 29.8555L12.3267 28.4152L14.5171 29.8555C14.8102 30.0482 15.1898 30.0482 15.4829 29.8555L17.6733 28.4152L19.8638 29.8555C20.1569 30.0482 20.5365 30.0482 20.8295 29.8555L23.02 28.4152L25.2105 29.8555C25.3566 29.9515 25.5247 30.0001 25.6934 30.0001C25.8365 30.0001 25.98 29.9651 26.1105 29.8948C26.395 29.7414 26.5723 29.4443 26.5723 29.1212V0.878906C26.5723 0.393516 26.1787 0 25.6934 0ZM7.82227 3.51562C8.30637 3.51562 8.70117 3.91043 8.70117 4.39453C8.70117 4.87863 8.30637 5.27344 7.82227 5.27344C7.33816 5.27344 6.94336 4.87863 6.94336 4.39453C6.94336 3.91043 7.33816 3.51562 7.82227 3.51562ZM7.82227 7.03125C8.30637 7.03125 8.70117 7.42611 8.70117 7.91016C8.70117 8.39426 8.30637 8.78906 7.82227 8.78906C7.33816 8.78906 6.94336 8.39426 6.94336 7.91016C6.94336 7.42605 7.33816 7.03125 7.82227 7.03125ZM10.5762 23.3706V23.8477C10.5762 24.333 10.1827 24.7266 9.69727 24.7266C9.21187 24.7266 8.81836 24.333 8.81836 23.8477V23.4375H8.29102C7.80562 23.4375 7.41211 23.044 7.41211 22.5586C7.41211 22.0732 7.80562 21.6797 8.29102 21.6797H9.99006C10.602 21.6797 10.6934 21.129 10.6934 20.8008C10.6934 20.4725 10.602 19.9219 9.99006 19.9219H9.49734C9.48164 19.9219 9.46635 19.9204 9.45088 19.9195C9.43541 19.9204 9.42012 19.9219 9.40441 19.9219C7.97836 19.9219 6.9433 18.813 6.9433 17.2852C6.9433 15.976 7.70361 14.9752 8.8183 14.7153V14.2383C8.8183 13.7529 9.21182 13.3594 9.69721 13.3594C10.1826 13.3594 10.5761 13.7529 10.5761 14.2383V14.6484H11.1035C11.5888 14.6484 11.9824 15.042 11.9824 15.5273C11.9824 16.0127 11.5888 16.4062 11.1035 16.4062H9.40441C8.79252 16.4062 8.70111 16.9569 8.70111 17.2852C8.70111 17.6134 8.79252 18.1641 9.40441 18.1641C9.42012 18.1641 9.43541 18.1656 9.45088 18.1664C9.46635 18.1656 9.48164 18.1641 9.49734 18.1641H9.99006C11.4161 18.1641 12.4512 19.2729 12.4512 20.8008C12.4512 22.1099 11.6909 23.1107 10.5762 23.3706ZM22.1777 23.8477H15.0293C14.5439 23.8477 14.1504 23.4541 14.1504 22.9688C14.1504 22.4834 14.5439 22.0898 15.0293 22.0898H22.1777C22.6631 22.0898 23.0566 22.4834 23.0566 22.9688C23.0566 23.4541 22.6631 23.8477 22.1777 23.8477ZM22.1777 19.9219H15.0293C14.5439 19.9219 14.1504 19.5284 14.1504 19.043C14.1504 18.5576 14.5439 18.1641 15.0293 18.1641H22.1777C22.6631 18.1641 23.0566 18.5576 23.0566 19.043C23.0566 19.5284 22.6631 19.9219 22.1777 19.9219ZM22.1777 15.9961H15.0293C14.5439 15.9961 14.1504 15.6026 14.1504 15.1172C14.1504 14.6318 14.5439 14.2383 15.0293 14.2383H22.1777C22.6631 14.2383 23.0566 14.6318 23.0566 15.1172C23.0566 15.6026 22.6631 15.9961 22.1777 15.9961ZM22.1777 8.78906H11.3379C10.8525 8.78906 10.459 8.39555 10.459 7.91016C10.459 7.42477 10.8525 7.03125 11.3379 7.03125H22.1777C22.6631 7.03125 23.0566 7.42477 23.0566 7.91016C23.0566 8.39555 22.6631 8.78906 22.1777 8.78906ZM22.1777 5.27344H11.3379C10.8525 5.27344 10.459 4.87992 10.459 4.39453C10.459 3.90914 10.8525 3.51562 11.3379 3.51562H22.1777C22.6631 3.51562 23.0566 3.90914 23.0566 4.39453C23.0566 4.87992 22.6631 5.27344 22.1777 5.27344Z"/>
</svg>
