<svg viewBox="0 0 14 14" xmlns="http://www.w3.org/2000/svg">
<circle cx="7" cy="7" r="7" />
<path d="M10.6506 4.05362C10.2896 3.86107 9.88699 4.23241 9.65095 4.45246C9.10947 4.97509 8.65128 5.58023 8.13753 6.13036C7.56826 6.73551 7.04064 7.34065 6.45749 7.93207C6.12425 8.26215 5.76325 8.61973 5.5411 9.03233C5.04125 8.55094 4.61083 8.02832 4.05545 7.60199C3.65279 7.29942 2.98633 7.07936 3.00021 7.80829C3.02798 8.75729 3.87495 9.77503 4.49975 10.4214C4.76356 10.6965 5.11068 10.9853 5.51333 10.9991C5.99929 11.0266 6.49914 10.4489 6.79072 10.1326C7.30447 9.58246 7.72101 8.96354 8.19306 8.39968C8.80399 7.657 9.4288 6.92806 10.0258 6.17162C10.4007 5.70401 11.5809 4.54871 10.6506 4.05362ZM3.61111 7.75327C3.59723 7.75327 3.58335 7.75328 3.55558 7.76701C3.50004 7.75328 3.45838 7.7395 3.40285 7.71199C3.4445 7.68449 3.51392 7.69824 3.61111 7.75327Z" fill="white"/>
</svg>
