<svg viewBox="0 0 30 30" xmlns="http://www.w3.org/2000/svg">
    <path d="M10.5181 3.75525V2.64042C10.5181 2.39689 10.7162 2.19868 10.9597 2.19868H11.6689C12.4133 2.19868 13.0925 1.74661 13.399 1.04685C13.6779 0.410908 14.3063 0 14.9999 0C15.6935 0 16.3222 0.410908 16.6007 1.0467C16.9075 1.74647 17.5864 2.19854 18.3308 2.19854H19.04C19.2836 2.19854 19.4816 2.3966 19.4816 2.64028V3.75511C19.4816 3.99864 19.2836 4.19685 19.04 4.19685H10.9596C10.7162 4.19685 10.5181 3.99879 10.5181 3.75525ZM8.97027 24.582H11.038V22.5143H8.97027V24.582ZM8.97027 12.1471H11.038V10.0794H8.97027V12.1471ZM25.3759 6.68152V27.1277C25.3759 28.7113 24.0875 29.9999 22.5037 29.9999H7.49631C5.91249 29.9999 4.62411 28.7113 4.62411 27.1277V6.68152C4.62411 5.09784 5.91249 3.80932 7.49631 3.80932H9.08659C9.11556 4.81845 9.94369 5.63109 10.9597 5.63109H19.0402C20.0562 5.63109 20.8843 4.81845 20.9133 3.80932H22.5036C24.0875 3.80932 25.3759 5.09784 25.3759 6.68152ZM13.606 11.101C13.606 11.497 13.927 11.8181 14.3231 11.8181H20.7962C21.1924 11.8181 21.5134 11.497 21.5134 11.101C21.5134 10.705 21.1924 10.3838 20.7962 10.3838H14.3231C13.927 10.3838 13.606 10.705 13.606 11.101ZM13.606 17.3901C13.606 17.7861 13.927 18.1072 14.3231 18.1072H20.0757C20.4718 18.1072 20.7928 17.7861 20.7928 17.3901C20.7928 16.9941 20.4718 16.673 20.0757 16.673H14.3231C13.927 16.673 13.606 16.9939 13.606 17.3901ZM12.4722 21.7972C12.4722 21.4012 12.1513 21.0801 11.7551 21.0801H8.25316C7.85702 21.0801 7.53604 21.4012 7.53604 21.7972V25.2992C7.53604 25.6951 7.85702 26.0163 8.25316 26.0163H11.7551C12.1513 26.0163 12.4722 25.6951 12.4722 25.2992V21.7972ZM12.4722 15.5796C12.4722 15.1837 12.1513 14.8625 11.7551 14.8625H8.25316C7.85702 14.8625 7.53604 15.1837 7.53604 15.5796V19.0816C7.53604 19.4776 7.85702 19.7987 8.25316 19.7987H11.7551C12.1513 19.7987 12.4722 19.4776 12.4722 19.0816V15.5796ZM12.4722 9.36224C12.4722 8.96625 12.1513 8.64513 11.7551 8.64513H8.25316C7.85702 8.64513 7.53604 8.96625 7.53604 9.36224V12.8642C7.53604 13.2602 7.85702 13.5813 8.25316 13.5813H11.7551C12.1513 13.5813 12.4722 13.2602 12.4722 12.8642V9.36224ZM21.8726 23.679C21.8726 23.2831 21.5517 22.9619 21.1555 22.9619H14.3231C13.927 22.9619 13.606 23.2831 13.606 23.679C13.606 24.075 13.927 24.3962 14.3231 24.3962H21.1557C21.5517 24.3962 21.8726 24.075 21.8726 23.679ZM8.97027 18.3645H11.038V16.2968H8.97027V18.3645Z"/>
</svg>
