<svg viewBox="0 0 24 24" xmlns="http://www.w3.org/2000/svg">
<path fill-rule="evenodd" clip-rule="evenodd" d="M18.6009 5.39886C18.9329 5.73081 18.9329 6.269 18.6009 6.60094L6.60094 18.6009C6.269 18.9329 5.73081 18.9329 5.39886 18.6009C5.06692 18.269 5.06692 17.7308 5.39886 17.3989L17.3989 5.39886C17.7308 5.06692 18.269 5.06692 18.6009 5.39886Z"/>
<path fill-rule="evenodd" clip-rule="evenodd" d="M5.39886 5.39886C5.73081 5.06692 6.269 5.06692 6.60094 5.39886L18.6009 17.3989C18.9329 17.7308 18.9329 18.269 18.6009 18.6009C18.269 18.9329 17.7308 18.9329 17.3989 18.6009L5.39886 6.60094C5.06692 6.269 5.06692 5.73081 5.39886 5.39886Z"/>
</svg>
