<svg viewBox="0 0 24 24" xmlns="http://www.w3.org/2000/svg">
<path d="M16.6875 7.89844C15.1568 7.89844 11.375 7.68414 11.375 6.14062V8.48438C11.375 10.1602 15.8086 10.2422 16.6875 10.2422C17.5664 10.2422 22 10.1602 22 8.48438V6.14062C22 7.68414 18.2182 7.89844 16.6875 7.89844Z"/>
<path d="M16.6875 3.21094C15.8069 3.21094 11.375 3.29562 11.375 4.96875C11.375 6.64188 15.8069 6.72656 16.6875 6.72656C17.5681 6.72656 22 6.64188 22 4.96875C22 3.29562 17.5681 3.21094 16.6875 3.21094Z"/>
<path d="M16.6875 11.4141C15.1568 11.4141 11.375 11.1998 11.375 9.65625V10.5477C12.2849 11.3002 12.9799 12.2998 13.3693 13.4397C14.6545 13.7314 16.2095 13.7578 16.6875 13.7578C17.5664 13.7578 22 13.6758 22 12V9.65625C22 11.1998 18.2182 11.4141 16.6875 11.4141Z"/>
<path d="M16.6875 14.9297C16.244 14.9297 14.8714 14.9092 13.6574 14.6743C13.6936 14.9504 13.7188 15.2298 13.7188 15.5156C13.7188 16.0245 13.6533 16.5173 13.5413 16.9925C14.7868 17.2491 16.2307 17.2734 16.6875 17.2734C17.5664 17.2734 22 17.1914 22 15.5156V13.1719C22 14.7154 18.2182 14.9297 16.6875 14.9297Z"/>
<path d="M16.6875 18.4453C16.1848 18.4453 14.5027 18.4165 13.1831 18.0807C12.8831 18.7691 12.4643 19.3925 11.9558 19.9313C13.1759 20.7361 16.0056 20.7891 16.6875 20.7891C17.5664 20.7891 22 20.707 22 19.0312V16.6875C22 18.231 18.2182 18.4453 16.6875 18.4453Z"/>
<circle cx="7.5" cy="15.5" r="5.5"/>
<path d="M8.31454 16.4368C9.7911 16.4368 10.5613 15.5835 10.5613 14.4553C10.5613 13.343 9.80389 12.4545 8.31454 12.4545H5.9367V15.5994H4.93635V16.4368H5.9367V16.9865H4.93635V17.8271H5.9367V19H6.92108V17.8271H8.36248V16.9865H6.92108V16.4368H8.31454ZM6.92108 15.5994V13.2983H8.31454C9.17108 13.2983 9.58017 13.7937 9.58017 14.4585C9.58017 15.1296 9.17427 15.5994 8.30176 15.5994H6.92108Z" fill="white"/>
</svg>
