<svg viewBox="0 0 20 20" xmlns="http://www.w3.org/2000/svg">
<path d="M12.5557 0.547363L17.838 5.82929H14.3615C13.3657 5.82929 12.5557 5.01913 12.5557 4.02305V0.547363Z"/>
<path d="M14.0018 18.1937C14.0018 19.1896 13.1907 20 12.1948 20H3.42244C2.42624 20 1.61621 19.1896 1.61621 18.1937V5.03464C1.61621 4.03844 2.42624 3.22803 3.42244 3.22803H5.61328H7.39819V7.25095C7.39819 8.67372 8.55539 9.83092 9.97815 9.83092H14.0018V17.1586V18.1937Z"/>
<path d="M13.4547 9.05701H9.97811C8.98241 9.05701 8.17188 8.24704 8.17188 7.25078V3.7749L13.4547 9.05701Z"/>
<path d="M16.5797 16.7718H14.7757V9.44408C14.7757 9.43521 14.7708 9.42709 14.7701 9.41822C14.7678 9.38494 14.7613 9.35361 14.7508 9.3219C14.7462 9.30906 14.7424 9.29642 14.7368 9.28314C14.7182 9.2425 14.6948 9.20381 14.6623 9.17097V9.17059C14.6615 9.17059 14.6612 9.17021 14.6612 9.17021L8.05878 2.5677C8.02512 2.53448 7.98605 2.51088 7.94471 2.49195C7.93395 2.48679 7.92225 2.48364 7.91105 2.47987C7.87783 2.46816 7.84423 2.46137 7.80888 2.45948C7.80076 2.45854 7.7934 2.45439 7.78491 2.45439H6V1.80661C6 0.8106 6.81073 0 7.80661 0H11.7821V4.02312C11.7821 5.44588 12.9396 6.60308 14.3624 6.60308H18.3852V14.9659C18.3859 15.9617 17.5755 16.7718 16.5797 16.7718Z"/>
</svg>
