<svg viewBox="0 0 24 24" xmlns="http://www.w3.org/2000/svg">
    <g transform="translate(0, -.5)">
        <path d="M5.66047 12.799L12.7365 19.875C12.9031 20.0417 13.1703 20.0417 13.3369 19.875C13.5035 19.7084 13.5035 19.4412 13.3369 19.2746L6.56265 12.5004L13.3369 5.72615C13.5035 5.55954 13.5035 5.29235 13.3369 5.12574C13.2552 5.04401 13.1451 5 13.0383 5C12.9314 5 12.8214 5.04087 12.7396 5.12574L5.66361 12.2018C5.49701 12.3652 5.49701 12.6356 5.66047 12.799Z"/>
        <path d="M10.6605 12.799L17.7365 19.875C17.9031 20.0417 18.1703 20.0417 18.3369 19.875C18.5035 19.7084 18.5035 19.4412 18.3369 19.2746L11.5627 12.5004L18.3369 5.72615C18.5035 5.55954 18.5035 5.29235 18.3369 5.12574C18.2552 5.04401 18.1451 5 18.0383 5C17.9314 5 17.8214 5.04087 17.7396 5.12574L10.6636 12.2018C10.497 12.3652 10.497 12.6356 10.6605 12.799Z"/>
    </g>
</svg>
