<svg viewBox="0 0 24 24" xmlns="http://www.w3.org/2000/svg">
    <g transform="translate(0, .5)">
        <path d="M18.3395 11.201L11.2635 4.12495C11.0969 3.95835 10.8297 3.95835 10.6631 4.12495C10.4965 4.29156 10.4965 4.55876 10.6631 4.72536L17.4373 11.4996L10.6631 18.2739C10.4965 18.4405 10.4965 18.7077 10.6631 18.8743C10.7448 18.956 10.8549 19 10.9617 19C11.0686 19 11.1786 18.9591 11.2604 18.8743L18.3364 11.7982C18.503 11.6348 18.503 11.3644 18.3395 11.201Z"/>
        <path d="M13.3395 11.201L6.26351 4.12495C6.0969 3.95835 5.82971 3.95835 5.6631 4.12495C5.4965 4.29156 5.4965 4.55876 5.6631 4.72536L12.4373 11.4996L5.6631 18.2739C5.4965 18.4405 5.4965 18.7077 5.6631 18.8743C5.74483 18.956 5.85486 19 5.96174 19C6.06862 19 6.17864 18.9591 6.26037 18.8743L13.3364 11.7982C13.503 11.6348 13.503 11.3644 13.3395 11.201Z"/>
    </g>
</svg>
