<svg viewBox="0 0 20 20" xmlns="http://www.w3.org/2000/svg">
    <path d="M9.35825 6.0756V2.73475C9.35825 2.37952 9.64159 2.0835 9.99992 2.0835C10.3208 2.0835 10.5926 2.33224 10.6356 2.64731L10.6416 2.73475V6.0756L14.6248 6.07585C16.6082 6.07585 18.2376 7.69998 18.3291 9.7255L18.3332 9.90524V14.1047C18.3332 16.1444 16.7604 17.8187 14.8065 17.9127L14.6332 17.9168H5.3665C3.38317 17.9168 1.76158 16.3008 1.67054 14.2679L1.6665 14.0874V9.89663C1.6665 7.85691 3.23143 6.17451 5.18483 6.08003L5.35817 6.07585H9.35817V11.4112L8.02484 10.0343C7.77484 9.77616 7.3665 9.77616 7.1165 10.0343C6.9915 10.1634 6.93317 10.3355 6.93317 10.5076C6.93317 10.6384 6.9705 10.7747 7.04944 10.8901L7.1165 10.9723L9.5415 13.4851C9.65817 13.6141 9.82484 13.683 9.99984 13.683C10.1387 13.683 10.2776 13.6352 10.3876 13.5445L10.4498 13.4851L12.8748 10.9723C13.1248 10.7141 13.1248 10.2925 12.8748 10.0343C12.6476 9.79963 12.2894 9.77829 12.0384 9.97031L11.9665 10.0343L10.6415 11.4112V6.07585L9.35825 6.0756Z"/>
</svg>
