<svg viewBox="0 0 24 24" xmlns="http://www.w3.org/2000/svg">
<path d="M3.3371 12.4976V8.64677H6.13763V9.55455H4.29179V10.1377H5.9631V10.9793H4.29179V11.5899H6.16216V12.4976H3.3371Z"/>
<path d="M6.65393 12.4976V8.64677H9.1605V9.58157H7.61868V12.4972L6.65393 12.4976Z"/>
<path d="M9.56873 12.4976V8.64677H11.0607C11.5052 8.64677 11.8576 8.76695 12.1179 9.0073C12.3782 9.24765 12.5084 9.58224 12.5084 10.0111C12.5084 10.4514 12.3707 10.7926 12.0954 11.0346C11.8201 11.2765 11.4581 11.3975 11.0096 11.3975H10.5335V12.4976H9.56873ZM10.5339 10.5619H10.9915C11.1639 10.5619 11.299 10.516 11.3969 10.424C11.4465 10.3758 11.4852 10.3175 11.5105 10.253C11.5358 10.1885 11.5471 10.1194 11.5437 10.0502C11.5437 9.88537 11.4947 9.75968 11.3969 9.67311C11.299 9.58654 11.1623 9.54352 10.9867 9.54406H10.5335L10.5339 10.5619Z"/>
<path d="M12.9161 12.4976V8.64677H13.8813V10.0881H15.1199V8.64677H16.085V12.4976H15.1199V11.0334H13.8813V12.4964L12.9161 12.4976Z"/>
<path d="M3.33221 15.6847V13.6873H4.25715C4.47699 13.6873 4.6412 13.7473 4.74977 13.8672C4.82908 13.9574 4.87069 14.0748 4.86599 14.195C4.87033 14.2887 4.84594 14.3814 4.79611 14.4607C4.74628 14.54 4.67341 14.6021 4.58731 14.6386C4.69155 14.6719 4.78417 14.7343 4.85433 14.8185C4.92713 14.9291 4.95817 15.0621 4.94188 15.1936C4.92559 15.3252 4.86303 15.4465 4.76546 15.5359C4.64481 15.634 4.47712 15.6831 4.26238 15.6831L3.33221 15.6847ZM3.81961 14.4834H4.13449C4.29267 14.4834 4.37176 14.4234 4.37176 14.3035C4.37176 14.1895 4.29616 14.1325 4.14495 14.1325H3.81961V14.4834ZM3.81961 15.2395H4.20648C4.36734 15.2395 4.44776 15.1767 4.44776 15.0512C4.44776 14.9315 4.36613 14.8716 4.20286 14.8713H3.82082L3.81961 15.2395Z"/>
<path d="M5.29547 15.6847V13.6873H5.79614V14.3152H6.0696C6.2948 14.3152 6.47617 14.3737 6.6137 14.4906C6.75123 14.6076 6.82014 14.7755 6.8204 14.9943C6.8204 15.2094 6.75499 15.3781 6.62416 15.5004C6.49333 15.6228 6.31745 15.6842 6.09654 15.6847H5.29547ZM5.79614 15.2197H6.05633C6.12662 15.2243 6.19607 15.2023 6.25097 15.158C6.27461 15.1351 6.29298 15.1073 6.30479 15.0765C6.31659 15.0457 6.32156 15.0127 6.31933 14.9798C6.32066 14.9484 6.31512 14.917 6.3031 14.888C6.29108 14.8589 6.27288 14.8329 6.24976 14.8116C6.19627 14.7673 6.12804 14.7448 6.05874 14.7487H5.79614V15.2197ZM7.03193 15.6847V13.6873H7.5322V15.6847H7.03193Z"/>
<path d="M7.97095 15.6847V13.6873H9.58837V15.6847H9.08811V14.1724H8.47122V15.6847H7.97095Z"/>
<path d="M10.0271 15.6847V13.6873H10.5226V14.8116L11.2215 13.6873H11.6884V15.6847H11.1934V14.5604L10.494 15.6847H10.0271Z"/>
<path d="M12.9966 15.7246C12.8715 15.7265 12.7476 15.701 12.6334 15.6499C12.5191 15.5989 12.4173 15.5235 12.3351 15.429C12.1549 15.232 12.065 14.9841 12.0652 14.6854C12.0576 14.4132 12.1552 14.1485 12.3375 13.9466C12.4222 13.8501 12.5269 13.7732 12.6443 13.7215C12.7617 13.6697 12.8889 13.6443 13.0171 13.647C13.3388 13.647 13.5918 13.7877 13.776 14.0692L13.4092 14.3829C13.2974 14.2289 13.1651 14.1519 13.0123 14.1519C12.9522 14.151 12.8927 14.1645 12.8389 14.1913C12.785 14.2181 12.7383 14.2574 12.7026 14.3059C12.6236 14.4169 12.5812 14.5498 12.5812 14.6862C12.5812 14.8226 12.6236 14.9555 12.7026 15.0665C12.7385 15.1147 12.7853 15.1537 12.8391 15.1803C12.8929 15.2069 12.9523 15.2202 13.0123 15.2193C13.0915 15.2217 13.1697 15.2002 13.2367 15.1576C13.3074 15.1081 13.3693 15.0469 13.4197 14.9766L13.7965 15.2734C13.7115 15.4066 13.5989 15.52 13.4663 15.6057C13.3241 15.6892 13.1612 15.7304 12.9966 15.7246Z"/>
<path d="M14.1291 15.6847V13.6873H14.6297V14.4975L15.2514 13.6873H15.845L15.1614 14.5463L15.8687 15.6847H15.2655L14.8115 14.9427L14.6281 15.1681V15.6847H14.1291Z"/>
<path d="M15.9869 15.6847L16.7554 13.6728H17.238L18.0069 15.6847H17.4704L17.3385 15.3278H16.642L16.5121 15.6847H15.9869ZM16.7892 14.8971H17.1958L16.9947 14.3293L16.7892 14.8971Z"/>
<path d="M11.6268 20.6985C12.7979 20.7989 13.7666 20.2307 15.5248 19.1992L15.7568 19.0633C17.7619 17.9175 18.8208 17.0896 19.2957 16.296C19.7328 15.5661 19.7212 14.8063 19.7019 13.5473C19.6954 13.1315 19.6882 12.6601 19.6987 12.1378C19.7003 11.9426 19.7021 11.7544 19.7043 11.5732C19.7196 10.2061 19.7304 9.21851 19.5643 8.47609L19.5487 8.40712V8.33575C19.5487 7.86028 18.7548 6.8033 16.5229 5.38176C14.8082 4.29292 12.9161 3.43717 12.2248 3.32304L12.2039 3.31901C10.3134 2.94235 5.55442 6.45487 3.76408 7.77721L3 6.73757C5.25201 5.07688 6.94424 3.95497 8.33043 3.20125C10.1357 2.2217 11.445 1.85633 12.4448 2.05152C13.4131 2.21565 15.4588 3.17665 17.213 4.29211C19.5615 5.78423 20.7792 7.11866 20.8343 8.2563C21.0193 9.13181 21.0076 10.1674 20.992 11.5878C20.9901 11.7692 20.9881 11.9574 20.9859 12.1523V12.1596C20.9759 12.6609 20.9831 13.1206 20.9891 13.5267C21.0097 14.8603 21.0261 15.9141 20.3996 16.9598C19.7944 17.968 18.635 18.9027 16.3966 20.1819L16.1747 20.3122C14.4708 21.3119 13.2981 21.9999 11.8946 21.9999C11.7708 21.9999 11.6453 21.9947 11.5174 21.9838C10.0697 21.8596 8.437 21.0482 5.27895 18.8826L5.25885 18.8685C5.01756 18.6902 4.84062 18.5612 4.69584 18.4575C4.18231 18.0861 4.07976 18.0067 3.47654 17.38L4.40147 16.4835C4.94196 17.0453 4.98981 17.0795 5.44705 17.411C5.59424 17.5159 5.7748 17.6478 6.01609 17.8252C8.92399 19.8182 10.4457 20.5973 11.6276 20.6985"/>
</svg>
