<svg
        viewBox="0 0 27 30"
        xmlns="http://www.w3.org/2000/svg"
>
    <g>
        <path d="M8.84005 24.1132C8.56711 23.8013 8.12576 23.8013 7.85282 24.1132C7.57988 24.4252 7.57988 24.9296 7.85282 25.2415L8.6426 26.1441H5.43702C3.35224 26.1441 1.66234 24.2062 1.66234 21.8302V19.1555C1.66234 18.7175 1.34876 18.3591 0.96548 18.3591C0.582205 18.3591 0.268616 18.7175 0.268616 19.1555V21.8302C0.268616 25.0888 2.58569 27.7369 5.43702 27.7369H8.6426L7.85282 28.6395C7.57988 28.9515 7.57988 29.4559 7.85282 29.7678C7.98639 29.9204 8.16641 30.0001 8.34643 30.0001C8.52646 30.0001 8.70067 29.9204 8.84005 29.7678L10.8203 27.5046C11.0932 27.1927 11.0932 26.6883 10.8203 26.3764L8.84005 24.1132Z"/>
        <rect x="0.906311" width="11.8125" height="14.25" rx="1"/>
        <path d="M12.4633 0.00158691H1.0173C0.634023 0.00158691 0.320435 0.359974 0.320435 0.798003V13.8791C0.320435 14.3172 0.634023 14.6756 1.0173 14.6756H12.4633C12.8466 14.6756 13.1602 14.3172 13.1602 13.8791V0.798003C13.1602 0.359974 12.8524 0.00158691 12.4633 0.00158691ZM11.7664 13.0827H1.71416V1.59442H11.7664V13.0827Z"/>
        <path d="M21.3076 2.26481H18.1021L18.8918 1.3622C19.1648 1.05027 19.1648 0.545877 18.8918 0.233947C18.6189 -0.0779824 18.1776 -0.0779824 17.9046 0.233947L15.9302 2.4971C15.6572 2.80903 15.6572 3.31342 15.9302 3.62535L17.9104 5.8885C18.044 6.04115 18.224 6.12079 18.404 6.12079C18.5841 6.12079 18.7583 6.04115 18.8976 5.8885C19.1706 5.57657 19.1706 5.07218 18.8976 4.76025L18.1079 3.85764H21.3134C23.3982 3.85764 25.0881 5.79559 25.0881 8.17156V10.8462C25.0881 11.2842 25.4017 11.6426 25.785 11.6426C26.1683 11.6426 26.4819 11.2842 26.4819 10.8462V8.17156C26.4819 4.91289 24.159 2.26481 21.3076 2.26481Z"/>
        <path fill-rule="evenodd" clip-rule="evenodd" d="M25.5 16.75H15.0312V29H25.5V16.75ZM15.0312 15.75C14.479 15.75 14.0312 16.1977 14.0312 16.75V29C14.0312 29.5523 14.479 30 15.0312 30H25.5C26.0523 30 26.5 29.5523 26.5 29V16.75C26.5 16.1977 26.0523 15.75 25.5 15.75H15.0312Z"/>
    </g>
</svg>
