<svg viewBox="0 0 20 20" xmlns="http://www.w3.org/2000/svg">
<path d="M19.0905 4.545H3.10336L6.09688 1.55142C6.45191 1.19645 6.45191 0.620815 6.09688 0.265784C5.74191 -0.0892458 5.16627 -0.0892458 4.81124 0.265784L0.265785 4.81124C-0.0892459 5.16621 -0.0892459 5.74184 0.265785 6.09687L4.81124 10.6423C4.98875 10.8198 5.22142 10.9086 5.45409 10.9086C5.68676 10.9086 5.91942 10.8198 6.09688 10.6423C6.45191 10.2874 6.45191 9.71172 6.09688 9.35669L3.10336 6.36318H19.0905C19.5925 6.36318 19.9995 5.95615 19.9995 5.45409C19.9995 4.95203 19.5925 4.545 19.0905 4.545Z"/>
<path d="M15.1882 9.35705C14.8333 9.00208 14.2576 9.00208 13.9026 9.35705C13.5476 9.71202 13.5476 10.2877 13.9026 10.6427L16.8962 13.6363H0.909091C0.40703 13.6363 0 14.0433 0 14.5453C0 15.0474 0.40703 15.4544 0.909091 15.4544H16.8962L13.9027 18.448C13.5476 18.803 13.5476 19.3786 13.9027 19.7337C14.0801 19.9111 14.3128 19.9999 14.5455 19.9999C14.7781 19.9999 15.0108 19.9111 15.1882 19.7336L19.7337 15.1881C20.0887 14.8332 20.0887 14.2575 19.7337 13.9025L15.1882 9.35705Z"/>
</svg>
