<svg viewBox="0 0 24 24" xmlns="http://www.w3.org/2000/svg">
<path d="M12.2072 5.61054C12.4984 5.90175 12.8946 6.06358 13.3062 6.05974L15.4541 6.04927L11.7374 2.3757L11.7477 4.51591C11.7484 4.92758 11.9139 5.32161 12.2072 5.61054V5.61054Z"/>
<path d="M3.97654 18.0866C4.26617 18.3751 4.65881 18.5368 5.06785 18.5356H5.07554L11.2465 18.5007C10.9801 17.0935 11.3345 15.64 12.2188 14.5134C13.1028 13.3868 14.4305 12.697 15.8605 12.6213L15.8274 6.58384L13.3088 6.59588H13.2985C12.1498 6.59571 11.217 5.66728 11.2114 4.51835L11.1994 2L4.9961 2.02985C4.13942 2.03387 3.44825 2.73167 3.45244 3.58853L3.51669 16.9919C3.51774 17.4036 3.68324 17.7978 3.97654 18.0866V18.0866ZM10.3046 11.8997H9.39523C9.24718 11.8997 9.12707 11.7798 9.12707 11.6315C9.12707 11.4835 9.24718 11.3634 9.39523 11.3634H10.3046C10.4529 11.3634 10.5728 11.4835 10.5728 11.6315C10.5728 11.7798 10.4529 11.8997 10.3046 11.8997ZM5.88944 9.08927H13.4398C13.588 9.08927 13.7079 9.20939 13.7079 9.35743C13.7079 9.50548 13.588 9.62559 13.4398 9.62559H5.88944C5.74122 9.62559 5.62128 9.50548 5.62128 9.35743C5.62128 9.20939 5.74122 9.08927 5.88944 9.08927ZM5.88944 11.3634H8.24281C8.39103 11.3634 8.51097 11.4835 8.51097 11.6315C8.51097 11.7798 8.39103 11.8997 8.24281 11.8997H5.88944C5.74122 11.8997 5.62128 11.7798 5.62128 11.6315C5.62128 11.4835 5.74122 11.3634 5.88944 11.3634Z"/>
<path d="M11.6962 17.5754C11.6962 20.019 13.6772 22 16.1208 22C18.5645 22 20.5455 20.019 20.5455 17.5754C20.5455 15.1318 18.5645 13.1508 16.1208 13.1508C13.6802 13.1581 11.7036 15.1347 11.6962 17.5754ZM14.1613 17.1314C14.2739 17.0352 14.4433 17.0487 14.5395 17.1613L15.4419 18.2184L17.737 16.3512C17.8112 16.2898 17.9126 16.2728 18.0028 16.3069C18.0929 16.3409 18.1579 16.4207 18.1729 16.516C18.1879 16.6112 18.1507 16.707 18.0755 16.7672L15.577 18.7996C15.4641 18.8914 15.2986 18.8764 15.2039 18.7657L14.1313 17.5097C14.085 17.4556 14.0622 17.3854 14.0679 17.3144C14.0735 17.2435 14.107 17.1777 14.1613 17.1314V17.1314Z"/>
</svg>
