<svg
        xmlns="http://www.w3.org/2000/svg"
        viewBox="0 0 748 748.74951"
>
    <path d="M 565.59375 215.796875 L 590.550781 190.84375 L 608.199219 208.488281 L 583.242188 233.445312 Z M 565.59375 215.796875" />
    <path d="M 515.679688 165.878906 L 540.632812 140.925781 L 558.28125 158.574219 L 533.328125 183.527344 Z M 515.679688 165.878906" />
    <path d="M 161.09375 727.449219 C 189.492188 755.847656 235.539062 755.847656 263.949219 727.449219 L 633.15625 358.242188 C 638.023438 353.363281 638.023438 345.472656 633.15625 340.59375 L 604.542969 311.980469 L 745.46875 171.054688 C 750.339844 166.179688 750.339844 158.28125 745.46875 153.410156 L 595.714844 3.65625 C 590.84375 -1.21875 582.945312 -1.21875 578.070312 3.65625 L 437.144531 144.582031 L 408.53125 115.96875 C 403.65625 111.097656 395.757812 111.097656 390.882812 115.96875 L 21.675781 485.175781 C -6.726562 513.582031 -6.726562 559.632812 21.675781 588.03125 Z M 586.894531 30.128906 L 719 162.230469 L 699.207031 182.023438 L 567.105469 49.917969 Z M 549.453125 67.566406 L 681.558594 199.667969 L 586.894531 294.335938 L 454.789062 162.230469 Z M 39.320312 502.824219 L 399.707031 142.441406 L 606.683594 349.421875 L 246.300781 709.804688 C 227.644531 728.457031 197.394531 728.457031 178.738281 709.804688 L 39.320312 570.386719 C 20.667969 551.730469 20.667969 521.484375 39.320312 502.824219 Z M 39.320312 502.824219" />
    <g transform="scale(.6) translate(300, 400)">
        <path d="M463.315,48.684c-64.91-64.912-170.529-64.912-235.439,0c-42.666,42.666-58.166,104.143-43.068,160.789L4.878,389.403
			c-3.122,3.122-4.877,7.356-4.877,11.771v94.177c0,9.194,7.454,16.648,16.648,16.648h94.177c4.415,0,8.649-1.755,11.771-4.877
			l23.544-23.544c3.122-3.122,4.876-7.356,4.876-11.771v-30.44h30.44c4.415,0,8.649-1.754,11.771-4.876l23.545-23.545
			c3.122-3.122,4.876-7.356,4.876-11.771v-30.44h30.44c4.415,0,8.649-1.755,11.771-4.877l38.664-38.664
			c56.652,15.1,118.123-0.403,160.789-43.068C528.227,219.216,528.227,113.597,463.315,48.684z M439.774,260.581
			c-35.956,35.956-88.336,48.228-136.702,32.026c-5.988-2.007-12.595-0.452-17.06,4.013l-40.816,40.816h-40.192
			c-9.194,0-16.648,7.454-16.648,16.648v40.192l-13.793,13.793h-40.192c-9.194,0-16.648,7.454-16.648,16.648v40.192l-13.791,13.793
			H33.298V408.07l182.081-182.081c4.465-4.465,6.02-11.072,4.014-17.06c-16.201-48.366-3.929-100.746,32.026-136.702
			c51.93-51.928,136.424-51.929,188.355,0C491.702,124.157,491.702,208.653,439.774,260.581z"/>
        <path d="M416.229,95.773c-25.965-25.966-68.213-25.966-94.177,0c-25.965,25.965-25.965,68.211,0,94.177
			c25.964,25.965,68.211,25.966,94.177,0C442.194,163.986,442.194,121.739,416.229,95.773z M392.685,166.405
			c-12.982,12.981-34.106,12.981-47.089,0c-12.982-12.982-12.982-34.106,0-47.089c12.982-12.981,34.106-12.982,47.089,0
			C405.667,132.299,405.667,153.423,392.685,166.405z"/>
    </g>
</svg>
