<svg viewBox="2 2 26 26" xmlns="http://www.w3.org/2000/svg">
    <path fill-rule="evenodd" clip-rule="evenodd" d="M16.3375 4.03304C15.5099 3.55521 14.4901 3.5552 13.6625 4.03305L6.17115 8.35818C5.3435 8.83602 4.83365 9.71911 4.83365 10.6748V19.325C4.83365 20.2807 5.34348 21.1638 6.17115 21.6417C6.17116 21.6417 6.17118 21.6417 6.17119 21.6417L13.6625 25.9668L13.6625 25.9668C14.4902 26.4447 15.5099 26.4447 16.3374 25.9668L16.3375 25.9668L23.8288 21.6417C24.6565 21.1638 25.1663 20.2807 25.1663 19.325V10.6748C25.1663 9.71907 24.6565 8.83602 23.8288 8.3582L23.8288 8.35818L16.3375 4.03305L16.3375 4.03304ZM17.3375 2.301C15.8911 1.46588 14.1089 1.4659 12.6625 2.301L5.17115 6.62613L5.64379 7.44476L5.17115 6.62613C3.72471 7.46124 2.83365 9.00458 2.83365 10.6748V19.325C2.83365 20.9953 3.72471 22.5386 5.17111 23.3737L5.17115 23.3738L12.6625 27.6988C14.1089 28.534 15.8911 28.5341 17.3375 27.6989C17.3375 27.6988 17.3375 27.6988 17.3376 27.6988L24.8288 23.3738L24.3468 22.5389L24.8288 23.3737C26.2754 22.5386 27.1663 20.9952 27.1663 19.325V10.6748C27.1663 9.00463 26.2754 7.46127 24.8288 6.62613C24.8288 6.62612 24.8288 6.62612 24.8288 6.62611L17.3375 2.30101C17.3375 2.301 17.3375 2.301 17.3375 2.301Z"/>
    <g transform="translate(7, 8) scale(.6)">
        <path d="M5.20312 1.32422H5.38477C6.0293 1.32813 6.61719 1.47852 7.14844 1.77539C7.67969 2.07227 8.0918 2.48242 8.38477 3.00586C8.68164 3.52539 8.83008 4.10742 8.83008 4.75195C8.83008 5.40039 8.68164 5.98828 8.38477 6.51562C8.08789 7.04297 7.67773 7.45508 7.1543 7.75195C6.63086 8.04492 6.04883 8.19531 5.4082 8.20312H5.20312V9.35156H4.11328V8.20312H3.94922C3.29688 8.20312 2.70312 8.05469 2.16797 7.75781C1.63672 7.46094 1.22266 7.05078 0.925781 6.52734C0.632812 6.00391 0.486328 5.41602 0.486328 4.76367C0.486328 4.11133 0.632812 3.52344 0.925781 3C1.22266 2.47656 1.63672 2.06641 2.16797 1.76953C2.70312 1.47266 3.29688 1.32422 3.94922 1.32422H4.11328V0.117188H5.20312V1.32422ZM3.94922 2.20898C3.21484 2.20898 2.63281 2.43555 2.20312 2.88867C1.77734 3.33789 1.56445 3.96289 1.56445 4.76367C1.56445 5.56836 1.77734 6.19531 2.20312 6.64453C2.62891 7.08984 3.21484 7.3125 3.96094 7.3125H4.11328V2.20898H3.94922ZM5.20312 2.20898V7.3125H5.36719C6.11328 7.3125 6.69531 7.08398 7.11328 6.62695C7.53516 6.16602 7.74609 5.54102 7.74609 4.75195C7.74609 3.9707 7.53516 3.35156 7.11328 2.89453C6.69531 2.4375 6.10547 2.20898 5.34375 2.20898H5.20312ZM16.8047 9H15.6738V5.05664H11.373V9H10.248V0.46875H11.373V4.13672H15.6738V0.46875H16.8047V9ZM25.0781 6.29297C24.9727 7.19531 24.6387 7.89258 24.0762 8.38477C23.5176 8.87305 22.7734 9.11719 21.8438 9.11719C20.8359 9.11719 20.0273 8.75586 19.418 8.0332C18.8125 7.31055 18.5098 6.34375 18.5098 5.13281V4.3125C18.5098 3.51953 18.6504 2.82227 18.9316 2.2207C19.2168 1.61914 19.6191 1.1582 20.1387 0.837891C20.6582 0.513672 21.2598 0.351562 21.9434 0.351562C22.8496 0.351562 23.5762 0.605469 24.123 1.11328C24.6699 1.61719 24.9883 2.31641 25.0781 3.21094H23.9473C23.8496 2.53125 23.6367 2.03906 23.3086 1.73438C22.9844 1.42969 22.5293 1.27734 21.9434 1.27734C21.2246 1.27734 20.6602 1.54297 20.25 2.07422C19.8438 2.60547 19.6406 3.36133 19.6406 4.3418V5.16797C19.6406 6.09375 19.834 6.83008 20.2207 7.37695C20.6074 7.92383 21.1484 8.19727 21.8438 8.19727C22.4688 8.19727 22.9473 8.05664 23.2793 7.77539C23.6152 7.49023 23.8379 6.99609 23.9473 6.29297H25.0781Z" fill="black"/>
    </g>
    <g transform="translate(10, 14) scale(0.02)">
        <path d="M458.667,85.333H53.333C23.936,85.333,0,109.269,0,138.667v234.667c0,29.397,23.936,53.333,53.333,53.333h405.333
			c29.397,0,53.333-23.936,53.333-53.333V138.667C512,109.269,488.064,85.333,458.667,85.333z M490.667,373.333
			c0,17.643-14.357,32-32,32H53.333c-17.643,0-32-14.357-32-32V138.667c0-17.643,14.357-32,32-32h405.333c17.643,0,32,14.357,32,32
			V373.333z"/>
        <path d="M501.333,149.333H10.667C4.779,149.333,0,154.112,0,160v64c0,5.888,4.779,10.667,10.667,10.667h490.667
			c5.888,0,10.667-4.779,10.667-10.667v-64C512,154.112,507.221,149.333,501.333,149.333z M490.667,213.333H21.333v-42.667h469.333
			V213.333z"/>
        <path d="M202.667,298.667h-128c-5.888,0-10.667,4.779-10.667,10.667S68.779,320,74.667,320h128
			c5.888,0,10.667-4.779,10.667-10.667S208.555,298.667,202.667,298.667z"/>
        <path d="M202.667,341.333h-128C68.779,341.333,64,346.112,64,352c0,5.888,4.779,10.667,10.667,10.667h128
			c5.888,0,10.667-4.779,10.667-10.667C213.333,346.112,208.555,341.333,202.667,341.333z"/>
        <path d="M416,277.333h-21.333c-17.643,0-32,14.357-32,32v21.333c0,17.643,14.357,32,32,32H416c17.643,0,32-14.357,32-32v-21.333
			C448,291.691,433.643,277.333,416,277.333z M426.667,330.667c0,5.888-4.779,10.667-10.667,10.667h-21.333
			c-5.888,0-10.667-4.779-10.667-10.667v-21.333c0-5.888,4.779-10.667,10.667-10.667H416c5.888,0,10.667,4.779,10.667,10.667
			V330.667z"/>
    </g>
</svg>
