<svg viewBox="0 0 20 20" xmlns="http://www.w3.org/2000/svg">
<path d="M10.2359 13.2332C10.27 13.1406 10.3081 13.0497 10.349 12.9594C10.1447 12.6638 10.035 12.3138 10.035 11.9471C10.035 11.4693 10.2216 11.0205 10.5577 10.6852C10.8953 10.3467 11.3444 10.1605 11.8226 10.1605C12.189 10.1605 12.5383 10.2702 12.8338 10.4738C12.9244 10.4334 13.0152 10.3956 13.1082 10.3608C13.2619 9.53075 13.9908 8.90005 14.865 8.90005C15.0666 8.90005 15.2597 8.93684 15.4408 8.99887C15.7672 8.75363 15.9814 8.36679 15.9814 7.92718C15.9814 7.18442 15.3791 6.58228 14.6365 6.58228H13.8175C13.6685 5.94302 13.4164 5.34514 13.0794 4.80402L13.6601 4.22382C14.1853 3.69881 14.1853 2.84704 13.6601 2.32202C13.1346 1.79676 12.2823 1.79676 11.7581 2.32202L11.1778 2.90222C10.6365 2.565 10.0385 2.31294 9.39952 2.16413V1.3449C9.39952 0.60214 8.7966 0 8.05446 0C7.3113 0 6.70956 0.602181 6.70956 1.3449V2.16404C6.06997 2.31286 5.47169 2.56496 4.93069 2.90213L4.3509 2.32231C3.82609 1.79701 2.97383 1.79701 2.44902 2.32231C1.9236 2.84737 1.9236 3.69909 2.44902 4.22407L3.02881 4.80394C2.69207 5.34506 2.43973 5.94294 2.29153 6.5822H1.47181C0.729012 6.5822 0.126953 7.18438 0.126953 7.9271C0.126953 8.66981 0.729053 9.27199 1.47181 9.27199H2.29144C2.43965 9.91133 2.69199 10.5095 3.02958 11.0506L2.4489 11.6308C1.92347 12.1558 1.92347 13.0076 2.4489 13.5326C2.71155 13.7953 3.05562 13.9266 3.39978 13.9266C3.74385 13.9266 4.08797 13.7953 4.35078 13.5326L4.93121 12.9524C5.47222 13.2893 6.06985 13.5415 6.70944 13.6902V14.5094C6.70944 15.2521 7.31113 15.8543 8.05434 15.8543C8.36433 15.8543 8.64674 15.7449 8.87397 15.5683C8.81226 15.3864 8.77478 15.1927 8.77478 14.9901C8.77478 14.1164 9.40528 13.3868 10.2359 13.2332ZM8.05434 10.6186C6.56773 10.6186 5.36215 9.41354 5.36215 7.92714C5.36215 6.44069 6.56777 5.23572 8.05434 5.23572C9.5405 5.23572 10.7455 6.44069 10.7455 7.92714C10.7455 9.41354 9.5405 10.6186 8.05434 10.6186Z"/>
<path d="M19.1685 14.2836H18.6693C18.5695 13.7403 18.3574 13.2366 18.0559 12.7985L18.408 12.4469C18.6837 12.1711 18.6837 11.7236 18.408 11.4478C18.2701 11.3096 18.0888 11.2406 17.9083 11.2406C17.7276 11.2406 17.5465 11.3096 17.4085 11.4478L17.0564 11.7998C16.6193 11.4977 16.1149 11.2859 15.5711 11.1854V10.6867C15.5711 10.2966 15.2553 9.98047 14.8653 9.98047C14.4753 9.98047 14.1594 10.2966 14.1594 10.6867V11.1854C13.6156 11.286 13.1119 11.4977 12.6738 11.7995L12.322 11.4482C12.184 11.3103 12.0033 11.241 11.8228 11.241C11.6414 11.241 11.4604 11.3103 11.3231 11.4482C11.0466 11.7236 11.0466 12.1711 11.3231 12.447L11.6743 12.7986C11.373 13.2367 11.1609 13.7403 11.0611 14.2837H10.562C10.172 14.2837 9.85547 14.5999 9.85547 14.99C9.85547 15.3804 10.172 15.6966 10.562 15.6966H11.0611C11.1609 16.2399 11.373 16.7433 11.675 17.1816L11.3231 17.5336C11.0466 17.8094 11.0466 18.2566 11.3231 18.5324C11.461 18.6703 11.6415 18.7396 11.8228 18.7396C12.0032 18.7396 12.184 18.6703 12.322 18.5324L12.6738 18.1808C13.1119 18.4822 13.6156 18.694 14.1594 18.7944V19.2932C14.1594 19.6836 14.4753 19.9998 14.8653 19.9998C15.2553 19.9998 15.5711 19.6836 15.5711 19.2932V18.7947C16.1149 18.694 16.6184 18.4822 17.0564 18.1804L17.4085 18.5327C17.5465 18.6706 17.7276 18.7396 17.9083 18.7396C18.0888 18.7396 18.2701 18.6707 18.408 18.5327C18.6837 18.257 18.6837 17.8094 18.408 17.5336L18.0559 17.1816C18.3575 16.7433 18.5695 16.2399 18.6693 15.6966H19.1685C19.5585 15.6966 19.875 15.3804 19.875 14.99C19.875 14.5999 19.5585 14.2836 19.1685 14.2836ZM14.8652 16.4484C14.0595 16.4484 13.4066 15.7954 13.4066 14.99C13.4066 14.1845 14.0595 13.5314 14.8652 13.5314C15.6709 13.5314 16.3235 14.1845 16.3235 14.99C16.3235 15.7954 15.6709 16.4484 14.8652 16.4484Z"/>
</svg>
