<svg viewBox="0 0 30 30" xmlns="http://www.w3.org/2000/svg">
<path d="M21.4347 0C21.0747 0 20.7825 0.292194 20.7825 0.652194V18.9131C20.7825 19.2731 21.0747 19.5653 21.4347 19.5653C21.7947 19.5653 22.0869 19.2731 22.0869 18.9131V0.652194C22.0869 0.292194 21.7947 0 21.4347 0Z"/>
<path d="M21.4347 24C21.0747 24 20.7825 24.448 20.7825 25V29C20.7825 29.552 21.0747 30 21.4347 30C21.7947 30 22.0869 29.552 22.0869 29V24.9999C22.0869 24.4479 21.7947 24 21.4347 24Z"/>
<path d="M9.56528 10.4348C9.20528 10.4348 8.91309 10.727 8.91309 11.087V29.3478C8.91309 29.7078 9.20528 30 9.56528 30C9.92528 30 10.2174 29.7078 10.2174 29.3478V11.0869C10.2174 10.7269 9.92528 10.4348 9.56528 10.4348Z"/>
<path d="M9.56528 0C9.20528 0 8.91309 0.448031 8.91309 1.00003V5.00006C8.91309 5.55197 9.20528 6 9.56528 6C9.92528 6 10.2175 5.55197 10.2175 4.99997V1.00003C10.2174 0.448031 9.92528 0 9.56528 0Z"/>
<rect x="5.75" y="5.3913" width="7.5" height="8.25" rx="2"/>
<path d="M10.8696 5H8.26085C6.46348 5 5 6.46348 5 8.26085V10.8696C5 12.6669 6.46348 14.1304 8.26085 14.1304H10.8696C12.6669 14.1304 14.1304 12.6669 14.1304 10.8696V8.26085C14.1304 6.46348 12.6669 5 10.8696 5ZM12.8261 10.8696C12.8261 11.9483 11.9483 12.8261 10.8696 12.8261H8.26085C7.18213 12.8261 6.30433 11.9483 6.30433 10.8696V8.26085C6.30433 7.18213 7.18213 6.30433 8.26085 6.30433H10.8696C11.9483 6.30433 12.8261 7.18213 12.8261 8.26085V10.8696Z"/>
<rect x="17.75" y="16.4891" width="7.5" height="8.25" rx="3"/>
<path d="M22.7391 16H20.1304C18.333 16 16.8695 17.4635 16.8695 19.2608V21.8696C16.8695 23.6669 18.333 25.1304 20.1304 25.1304H22.7391C24.5364 25.1304 25.9999 23.6669 25.9999 21.8696V19.2608C26 17.4635 24.5365 16 22.7391 16ZM24.6956 21.8696C24.6956 22.9483 23.8178 23.8261 22.7391 23.8261H20.1304C19.0516 23.8261 18.1738 22.9483 18.1738 21.8696V19.2608C18.1738 18.1821 19.0516 17.3043 20.1304 17.3043H22.7391C23.8178 17.3043 24.6956 18.1821 24.6956 19.2608V21.8696Z"/>
</svg>
