<svg viewBox="0 0 60 60" xmlns="http://www.w3.org/2000/svg">
    <path d="M57.1026 30C58.7028 30 60.0145 31.3002 59.8602 32.8929C59.4797 36.8208 58.3268 40.6449 56.4576 44.1419C54.132 48.4929 50.7692 52.2032 46.6671 54.9441C42.565 57.685 37.8503 59.372 32.9405 59.8555C28.0307 60.3391 23.0775 59.6044 18.5195 57.7164C13.9615 55.8284 9.93949 52.8455 6.80969 49.0318C3.67989 45.2181 1.53893 40.6914 0.576442 35.8527C-0.386042 31.014 -0.140338 26.0126 1.29179 21.2915C2.44283 17.497 4.33171 13.9778 6.84004 10.9313C7.85715 9.69593 9.70405 9.70406 10.8356 10.8356C11.9671 11.9671 11.9512 13.7922 10.9629 15.0507C9.11315 17.4062 7.7113 20.0915 6.83703 22.9736C5.68153 26.7828 5.48329 30.8181 6.25986 34.7222C7.03643 38.6263 8.76385 42.2786 11.2891 45.3556C13.8143 48.4327 17.0595 50.8394 20.7371 52.3627C24.4146 53.886 28.4111 54.4788 32.3725 54.0887C36.3339 53.6985 40.138 52.3374 43.4477 50.1259C46.7574 47.9144 49.4707 44.9208 51.3471 41.4103C52.7668 38.7541 53.6744 35.8641 54.032 32.8905C54.2231 31.3018 55.5024 30 57.1026 30Z"/>
</svg>
