<svg viewBox="0 0 20 20" xmlns="http://www.w3.org/2000/svg">
    <path d="M0.585938 20H11.2109C11.5346 20 11.7969 19.7377 11.7969 19.4141V18.7891C11.7969 18.1418 11.2723 17.6172 10.625 17.6172V16.9167C10.625 15.9891 9.8703 15.2344 8.94272 15.2344H2.85416C1.92657 15.2344 1.17188 15.9891 1.17188 16.9167V17.6172C0.524597 17.6172 0 18.1418 0 18.7891V19.4141C0 19.7376 0.262451 20 0.585938 20Z"
    />
    <path d="M7.33268 12.904C7.72209 13.4209 8.45695 13.5242 8.97377 13.1346C9.49074 12.7452 9.59388 12.0103 9.20448 11.4934L5.67817 6.81394C5.28862 6.29698 4.55391 6.19383 4.03709 6.58323C3.52012 6.97279 3.41682 7.7075 3.80638 8.22447L7.33268 12.904Z"
    />
    <path d="M15.7564 6.55665C16.1459 7.07347 16.8806 7.17677 17.3976 6.78722C17.9144 6.39781 18.0177 5.6631 17.6282 5.14613L14.1019 0.466719C13.7125 -0.050249 12.9776 -0.153551 12.4608 0.236006C11.944 0.625563 11.8407 1.36027 12.2302 1.87724L15.7564 6.55665Z"
    />
    <path d="M13.1859 9.96094C14.052 9.30832 14.7022 8.49792 15.1088 7.64465L11.0057 2.19971C10.0734 2.3555 9.11533 2.75696 8.24909 3.40973C7.383 4.06235 6.73282 4.87274 6.32617 5.72586L10.4293 11.1711C11.3616 11.0153 12.3197 10.6137 13.1859 9.96094Z"
    />
    <path d="M14.7681 10.1135C14.4953 10.3915 14.208 10.6581 13.8912 10.8969C13.5743 11.1356 13.2387 11.3383 12.8965 11.524L13.6605 12.538L15.5323 11.1276L14.7681 10.1135Z"
    />
    <path d="M16.238 12.0635L14.3662 13.4738L17.8925 18.1534C18.2821 18.6704 19.0168 18.7735 19.5336 18.3841C20.0506 17.9946 20.1537 17.2599 19.7643 16.7429L16.238 12.0635Z"
    />
</svg>
