<svg
        viewBox="0 0 24 24"
        xmlns="http://www.w3.org/2000/svg"
>
    <path
            transform="translate(2,2)"
            d="M8.00006 14.9923C9.70549 14.9923 11.2559 14.3877 12.4652 13.3644L17.8915 18.7908C18.0156 18.9148 18.1706 18.9768 18.3411 18.9768C18.5117 18.9768 18.6667 18.9148 18.7908 18.7908C19.0388 18.5427 19.0388 18.1396 18.7908 17.8915L13.3644 12.4652C14.3722 11.2559 14.9923 9.68998 14.9923 8.00006C14.9923 4.1396 11.8605 1.00781 8.00006 1.00781C4.1551 1.00781 1.00781 4.1551 1.00781 8.00006C1.00781 11.8605 4.1551 14.9923 8.00006 14.9923ZM8.00006 2.27913C11.1629 2.27913 13.721 4.85277 13.721 8.00006C13.721 11.1629 11.1629 13.721 8.00006 13.721C4.83727 13.721 2.27913 11.1473 2.27913 8.00006C2.27913 4.85277 4.85277 2.27913 8.00006 2.27913Z"/>
</svg>
