<svg
        viewBox="0 0 27 30"
        xmlns="http://www.w3.org/2000/svg"
>
    <path d="M13.3192 18.1745C17.0721 18.1745 20.2765 18.8545 20.2765 21.5754C20.2765 24.2953 17.0927 25 13.3192 25C9.56639 25 6.36197 24.32 6.36197 21.6002C6.36197 18.8792 9.54583 18.1745 13.3192 18.1745ZM19.3196 16.5361C20.7544 16.5057 22.2968 16.7309 22.8668 16.8907C24.0743 17.162 24.8686 17.7159 25.1976 18.5208C25.4758 19.1816 25.4758 19.9483 25.1976 20.608C24.6943 21.8564 23.0715 22.2572 22.4408 22.3608C22.3105 22.3833 22.2057 22.2538 22.2195 22.1041C22.5417 18.6446 19.9787 17.0044 19.3157 16.6273C19.2873 16.6104 19.2814 16.5845 19.2844 16.5687C19.2863 16.5575 19.2981 16.5395 19.3196 16.5361ZM7.16095 16.5338L7.43112 16.5365C7.45267 16.5399 7.46344 16.5579 7.4654 16.5681C7.46834 16.585 7.46246 16.6097 7.43504 16.6277C6.77104 17.0049 4.20809 18.6451 4.5303 22.1034C4.54401 22.2543 4.4402 22.3826 4.30995 22.3612C3.67925 22.2576 2.05647 21.8569 1.55309 20.6084C1.27397 19.9476 1.27397 19.1821 1.55309 18.5213C1.88215 17.7163 2.67542 17.1625 3.88295 16.89C4.45391 16.7313 5.9954 16.5062 7.43112 16.5365L7.16095 16.5338ZM13.3192 5C15.8744 5 17.9232 7.35283 17.9232 10.2911C17.9232 13.2282 15.8744 15.5833 13.3192 15.5833C10.7641 15.5833 8.71534 13.2282 8.71534 10.2911C8.71534 7.35283 10.7641 5 13.3192 5ZM19.5693 5.88237C22.0373 5.88237 23.9754 8.55154 23.3153 11.5247C22.8697 13.5263 21.2568 14.8558 19.4597 14.8018C19.2795 14.7961 19.1022 14.777 18.9308 14.7432C18.8064 14.7184 18.7438 14.5575 18.8143 14.4381C19.4998 13.2786 19.8906 11.8838 19.8906 10.3865C19.8906 8.82398 19.4636 7.36724 18.7222 6.17281C18.6987 6.13566 18.6811 6.07825 18.7046 6.03547C18.7242 6.00057 18.7604 5.98256 18.7947 5.97356C19.0444 5.91502 19.301 5.88237 19.5693 5.88237ZM7.17992 5.88226C7.44826 5.88226 7.70485 5.9149 7.95556 5.97344C7.98886 5.98245 8.02608 6.00159 8.04566 6.03536C8.06819 6.07814 8.05154 6.13555 8.02804 6.1727C7.28667 7.36713 6.85967 8.82386 6.85967 10.3864C6.85967 11.8837 7.25043 13.2785 7.93598 14.438C8.00649 14.5573 7.94381 14.7183 7.81943 14.7431C7.64707 14.778 7.47079 14.796 7.29059 14.8016C5.49349 14.8557 3.8805 13.5262 3.4349 11.5246C2.77384 8.55143 4.71197 5.88226 7.17992 5.88226Z"/>
</svg>
