<svg
        viewBox="0 0 27 30"
        xmlns="http://www.w3.org/2000/svg"
>
        <g>
                <path d="M22.5054 0C22.1904 0 21.9348 0.292194 21.9348 0.652194V18.9131C21.9348 19.2731 22.1904 19.5653 22.5054 19.5653C22.8204 19.5653 23.0761 19.2731 23.0761 18.9131V0.652194C23.0761 0.292194 22.8204 0 22.5054 0Z" />
                <path d="M22.5054 26.0869C22.1904 26.0869 21.9348 26.3791 21.9348 26.7391V29.3478C21.9348 29.7078 22.1904 30 22.5054 30C22.8204 30 23.0761 29.7078 23.0761 29.3478V26.739C23.0761 26.379 22.8204 26.0869 22.5054 26.0869Z" />
                <path d="M4.24462 10.4348C3.92962 10.4348 3.67395 10.727 3.67395 11.087V29.3478C3.67395 29.7078 3.92962 30 4.24462 30C4.55962 30 4.81524 29.7078 4.81524 29.3478V11.0869C4.81524 10.7269 4.55962 10.4348 4.24462 10.4348Z" />
                <path d="M4.24462 0C3.92962 0 3.67395 0.292194 3.67395 0.652194V3.26091C3.67395 3.62085 3.92962 3.91304 4.24462 3.91304C4.55962 3.91304 4.81529 3.62085 4.81529 3.26085V0.652194C4.81524 0.292194 4.55962 0 4.24462 0Z" />
                <path d="M13.375 18.261C13.06 18.261 12.8043 18.5532 12.8043 18.9132V29.3479C12.8043 29.7079 13.06 30.0001 13.375 30.0001C13.69 30.0001 13.9457 29.7079 13.9457 29.3479V18.9131C13.9457 18.5531 13.69 18.261 13.375 18.261Z" />
                <path d="M13.375 0C13.06 0 12.8043 0.292194 12.8043 0.652194V11.087C12.8043 11.447 13.06 11.7392 13.375 11.7392C13.69 11.7392 13.9457 11.4469 13.9457 11.0869V0.652194C13.9457 0.292194 13.69 0 13.375 0Z" />
                <rect x="0.90625" y="3" width="6.5625" height="8.25" rx="2" />
                <path d="M5.38587 2.60864H3.10324C1.53054 2.60864 0.25 4.07212 0.25 5.86949V8.4782C0.25 10.2756 1.53054 11.7391 3.10324 11.7391H5.38587C6.95856 11.7391 8.23911 10.2756 8.23911 8.4782V5.86949C8.23911 4.07212 6.95856 2.60864 5.38587 2.60864ZM7.09782 8.4782C7.09782 9.55692 6.32974 10.4347 5.38587 10.4347H3.10324C2.15937 10.4347 1.39129 9.55692 1.39129 8.4782V5.86949C1.39129 4.79077 2.15937 3.91297 3.10324 3.91297H5.38587C6.32974 3.91297 7.09782 4.79077 7.09782 5.86949V8.4782Z" />
                <rect x="19.2812" y="18.75" width="6.5625" height="8.25" rx="3" />
                <path d="M23.6467 18.2609H21.364C19.7913 18.2609 18.5108 19.7243 18.5108 21.5217V24.1304C18.5108 25.9278 19.7913 27.3913 21.364 27.3913H23.6467C25.2194 27.3913 26.4999 25.9278 26.4999 24.1304V21.5217C26.5 19.7243 25.2194 18.2609 23.6467 18.2609ZM25.3586 24.1304C25.3586 25.2091 24.5905 26.0869 23.6467 26.0869H21.364C20.4202 26.0869 19.6521 25.2091 19.6521 24.1304V21.5217C19.6521 20.443 20.4202 19.5652 21.364 19.5652H23.6467C24.5905 19.5652 25.3586 20.443 25.3586 21.5217V24.1304V24.1304Z" />
                <rect x="10.0938" y="10.5" width="6.5625" height="9" rx="3.28125" />
                <path d="M14.5163 10.4348H12.2337C10.661 10.4348 9.38043 11.8983 9.38043 13.6957V16.3044C9.38043 18.1017 10.661 19.5652 12.2337 19.5652H14.5163C16.089 19.5652 17.3695 18.1017 17.3695 16.3044V13.6957C17.3695 11.8983 16.089 10.4348 14.5163 10.4348ZM16.2283 16.3044C16.2283 17.3831 15.4602 18.2609 14.5163 18.2609H12.2337C11.2898 18.2609 10.5217 17.3831 10.5217 16.3044V13.6957C10.5217 12.6169 11.2898 11.7391 12.2337 11.7391H14.5163C15.4602 11.7391 16.2283 12.6169 16.2283 13.6957V16.3044V16.3044Z" />

        </g>
</svg>
