<svg viewBox="0 -5 25 25" xmlns="http://www.w3.org/2000/svg">
<path d="M14.2628 2.51953L6.00961 10.7733C5.96809 10.815 5.93811 10.8676 5.92383 10.9241L5.00904 14.5958C4.98168 14.7064 5.01416 14.8239 5.09482 14.9046C5.15585 14.9656 5.23902 14.9994 5.32408 14.9994C5.35014 14.9994 5.37679 14.9962 5.40272 14.9896L9.07449 14.0747C9.13172 14.0605 9.18371 14.0306 9.22523 13.9891L17.4792 5.73587L14.2628 2.51953Z"/>
<path d="M19.5242 1.39415L18.6055 0.475432C17.9915 -0.138592 16.9213 -0.137997 16.308 0.475432L15.1826 1.60081L18.3988 4.81702L19.5242 3.69165C19.8309 3.38506 19.9999 2.97698 19.9999 2.54296C19.9999 2.10894 19.8309 1.70086 19.5242 1.39415Z"/>
</svg>
