<svg viewBox="0 0 40 30" xmlns="http://www.w3.org/2000/svg">
<path d="M29.7559 5.80078V4.39453C29.7559 1.97139 27.7845 0 25.3613 0H14.5801C12.1569 0 10.1855 1.97139 10.1855 4.39453V5.80078H29.7559Z"/>
<path d="M11.9434 18.6914V25.8398V27.3633V28.2422C11.9434 29.213 12.7303 30 13.7012 30H26.2402C27.2111 30 27.998 29.213 27.998 28.2422V27.3633V25.8398V18.6914H11.9434ZM22.3145 26.1914H17.627C17.1416 26.1914 16.748 25.7979 16.748 25.3125C16.748 24.8271 17.1416 24.4336 17.627 24.4336H22.3145C22.7998 24.4336 23.1934 24.8271 23.1934 25.3125C23.1934 25.7979 22.7998 26.1914 22.3145 26.1914ZM22.3145 22.4414H17.627C17.1416 22.4414 16.748 22.0479 16.748 21.5625C16.748 21.0771 17.1416 20.6836 17.627 20.6836H22.3145C22.7998 20.6836 23.1934 21.0771 23.1934 21.5625C23.1934 22.0479 22.7998 22.4414 22.3145 22.4414Z"/>
<path d="M30.5762 7.55859H9.42383C7.00068 7.55859 5.0293 9.52998 5.0293 11.9531V18.9844C5.0293 21.4075 7.00068 23.3789 9.42383 23.3789H10.1855V18.6914H9.6582C9.17281 18.6914 8.7793 18.2979 8.7793 17.8125C8.7793 17.3271 9.17281 16.9336 9.6582 16.9336H11.0645H28.877H30.2832C30.7686 16.9336 31.1621 17.3271 31.1621 17.8125C31.1621 18.2979 30.7686 18.6914 30.2832 18.6914H29.7559V23.3789H30.5762C32.9993 23.3789 34.9707 21.4075 34.9707 18.9844V11.9531C34.9707 9.52998 32.9993 7.55859 30.5762 7.55859ZM12.4707 13.0664H9.6582C9.17281 13.0664 8.7793 12.6729 8.7793 12.1875C8.7793 11.7021 9.17281 11.3086 9.6582 11.3086H12.4707C12.9561 11.3086 13.3496 11.7021 13.3496 12.1875C13.3496 12.6729 12.9561 13.0664 12.4707 13.0664Z"/>
</svg>
