<svg viewBox="0 0 24 24" xmlns="http://www.w3.org/2000/svg">
<path d="M10.1957 5.30438H18.6739C18.8542 5.30438 19 5.15831 19 4.97831C19 4.79831 18.8542 4.65224 18.6739 4.65224H10.1957C10.0157 4.65224 9.86963 4.79831 9.86963 4.97831C9.86963 5.15831 10.0157 5.30438 10.1957 5.30438Z"/>
<path d="M18.6739 9.86957H10.1957C10.0157 9.86957 9.86963 10.0156 9.86963 10.1956C9.86963 10.3756 10.0157 10.5217 10.1957 10.5217H18.6739C18.8542 10.5217 19 10.3756 19 10.1956C19 10.0156 18.8542 9.86957 18.6739 9.86957Z"/>
<path d="M10.1957 7.91308H16.0652C16.2456 7.91308 16.3913 7.767 16.3913 7.587C16.3913 7.40701 16.2456 7.26093 16.0652 7.26093H10.1957C10.0157 7.26093 9.86963 7.40701 9.86963 7.587C9.86963 7.76697 10.0157 7.91308 10.1957 7.91308Z"/>
<path d="M16.0652 17.6956H10.1957C10.0157 17.6956 9.86963 17.8414 9.86963 18.0217C9.86963 18.202 10.0157 18.3478 10.1957 18.3478H16.0652C16.2456 18.3478 16.3913 18.202 16.3913 18.0217C16.3913 17.8414 16.2456 17.6956 16.0652 17.6956Z"/>
<path d="M18.6739 15.0869H10.1957C10.0157 15.0869 9.86963 15.2327 9.86963 15.413C9.86963 15.5933 10.0157 15.7391 10.1957 15.7391H18.6739C18.8542 15.7391 19 15.5933 19 15.413C19 15.2327 18.8542 15.0869 18.6739 15.0869Z"/>
<path d="M10.1957 13.1304H16.0652C16.2456 13.1304 16.3913 12.9847 16.3913 12.8044C16.3913 12.624 16.2456 12.4783 16.0652 12.4783H10.1957C10.0157 12.4783 9.86963 12.624 9.86963 12.8044C9.86963 12.9847 10.0157 13.1304 10.1957 13.1304Z"/>
<path d="M8.00864 6.51369C8.13614 6.64119 8.34221 6.64119 8.46971 6.51369C8.53328 6.45012 8.56525 6.36662 8.56525 6.28316C8.56525 6.19969 8.53328 6.11619 8.46971 6.05262L6.51322 4.0961C6.45518 4.03806 6.3805 4.00642 6.30454 4.00121H6.30419C6.28365 3.99989 6.26311 4.00056 6.24287 4.00317C6.24254 4.00317 6.24255 4.00317 6.24222 4.00317C6.17962 4.01099 6.11897 4.03674 6.06841 4.08078C6.06222 4.08631 6.05634 4.09185 6.05048 4.09774L4.09562 6.05259C3.96813 6.18009 3.96813 6.38616 4.09562 6.51366C4.22312 6.64116 4.4292 6.64116 4.5567 6.51366L5.95658 5.11378V17.8872L4.55702 16.4873C4.42952 16.3598 4.22345 16.3598 4.09595 16.4873C3.96845 16.6148 3.96845 16.8209 4.09595 16.9484L6.05083 18.9032C6.05669 18.9091 6.06258 18.9147 6.06876 18.9202C6.11897 18.9639 6.17929 18.99 6.24158 18.9978H6.2419C6.25526 18.9994 6.26897 19.0004 6.28265 19.0004C6.28983 19.0004 6.29701 19.0001 6.30419 18.9998C6.30451 18.9998 6.30451 18.9998 6.30451 18.9998C6.38047 18.9946 6.45515 18.9632 6.51319 18.9049L8.46971 16.9484C8.53328 16.8848 8.56525 16.8013 8.56525 16.7178C8.56525 16.6344 8.53328 16.5509 8.46971 16.4873C8.34221 16.3598 8.13614 16.3598 8.00864 16.4873L6.60875 17.8872V5.11381L8.00864 6.51369Z"/>
</svg>
