<svg  viewBox="0 0 20 20" xmlns="http://www.w3.org/2000/svg">
    <g transform="scale(.9) translate(1, 1)">
        <path d="M3.4375 2.5H6.875V1.875C6.875 0.839453 7.71445 0 8.75 0H11.25C12.2855 0 13.125 0.839453 13.125 1.875V2.5H16.5625C17.4254 2.5 18.125 3.19957 18.125 4.0625V5.3125C18.125 5.6577 17.8452 5.9375 17.5 5.9375H2.5C2.1548 5.9375 1.875 5.6577 1.875 5.3125V4.0625C1.875 3.19957 2.57457 2.5 3.4375 2.5ZM11.875 1.875C11.875 1.53047 11.5945 1.25 11.25 1.25H8.75C8.40547 1.25 8.125 1.53047 8.125 1.875V2.5H11.875V1.875Z"/>
        <path d="M16.9397 7.1875C17.0512 7.1875 17.1401 7.2807 17.1348 7.39211L16.6192 18.2141C16.5715 19.2156 15.7488 20 14.7465 20H5.2551C4.25276 20 3.4301 19.2156 3.38244 18.2141L2.86682 7.39211C2.86151 7.2807 2.95037 7.1875 3.0619 7.1875H16.9397ZM7.5008 8.75C7.5008 8.40469 7.22111 8.125 6.8758 8.125C6.53049 8.125 6.2508 8.40469 6.2508 8.75V16.875C6.2508 17.2203 6.53049 17.5 6.8758 17.5C7.22111 17.5 7.5008 17.2203 7.5008 16.875V8.75ZM10.6258 8.75C10.6258 8.40469 10.3461 8.125 10.0008 8.125C9.65549 8.125 9.3758 8.40469 9.3758 8.75V16.875C9.3758 17.2203 9.65549 17.5 10.0008 17.5C10.3461 17.5 10.6258 17.2203 10.6258 16.875V8.75ZM13.7508 8.75C13.7508 8.40469 13.4711 8.125 13.1258 8.125C12.7805 8.125 12.5008 8.40469 12.5008 8.75V16.875C12.5008 17.2203 12.7805 17.5 13.1258 17.5C13.4711 17.5 13.7508 17.2203 13.7508 16.875V8.75Z"/>
    </g>
</svg>
