<svg xmlns="http://www.w3.org/2000/svg" width="512" height="512" viewBox="0 0 512 512" version="1.1">
	<path d="M 244.994 33.934 C 238.698 35.849, 231.878 41.297, 229.186 46.561 C 228.325 48.244, 226.513 48.841, 219.316 49.811 C 214.467 50.465, 205.135 52.372, 198.577 54.048 C 141.386 68.672, 92.929 105.910, 63.777 157.639 C 57.763 168.311, 57.338 168.805, 53.645 169.417 C 38.504 171.930, 29.549 187.587, 34.216 203.384 C 35.839 208.877, 44.123 217.161, 49.616 218.784 C 68.122 224.252, 85.327 211.015, 83.791 192.492 C 83.562 189.729, 82.343 185.403, 81.082 182.879 L 78.790 178.289 82.851 170.894 C 111.264 119.155, 163.931 82.180, 222.262 73.020 L 229.024 71.958 232.124 75.489 C 233.829 77.430, 236.524 79.787, 238.112 80.725 L 241 82.431 241 133.993 C 241 180.937, 241.153 185.776, 242.704 188.027 C 245.394 191.931, 247.204 192.934, 251.615 192.968 C 256.812 193.008, 260.578 190.182, 261.960 185.205 C 262.601 182.895, 262.991 162.762, 262.994 131.750 C 262.998 97.746, 263.332 82, 264.048 82 C 264.624 82, 267.370 79.725, 270.150 76.945 L 275.205 71.891 285.852 73.942 C 291.709 75.070, 299.425 76.788, 303 77.760 L 309.500 79.527 310.073 106.514 C 310.388 121.356, 310.726 133.669, 310.823 133.876 C 310.920 134.083, 318.287 141.625, 327.193 150.635 L 343.386 167.016 343.487 173.758 C 343.598 181.274, 345.117 184.964, 350.191 190.037 C 362.501 202.347, 384.117 195.825, 387.969 178.640 C 390.080 169.219, 385.699 159.255, 377.272 154.310 C 373.361 152.015, 371.275 151.499, 365.707 151.448 L 358.913 151.386 345.457 137.957 L 332 124.528 332 106.764 C 332 96.994, 332.235 89, 332.522 89 C 334.071 89, 349.707 97.586, 357.500 102.716 C 382.946 119.466, 403.867 141.914, 419.457 169.195 L 424.997 178.891 422.749 182.695 C 420.922 185.787, 420.500 188, 420.500 194.500 C 420.500 201.413, 420.871 203.131, 423.230 207.145 C 428.432 215.992, 435.597 220.207, 445.611 220.308 C 464.922 220.504, 477.751 200.152, 469.057 183.112 C 465.067 175.291, 456.345 169.070, 449.301 169.022 C 446.316 169.001, 445.816 168.452, 441.853 160.834 C 429.746 137.563, 409.257 112.783, 387.797 95.457 C 358.397 71.719, 320.547 54.870, 285.204 49.786 C 276.307 48.507, 276.244 48.477, 272.839 44.011 C 268.874 38.812, 264.245 35.440, 259.118 34.016 C 254.962 32.862, 248.640 32.825, 244.994 33.934 M 248.388 49.942 C 244.517 51.576, 241.760 56.134, 242.370 59.893 C 243.477 66.716, 249.349 70.135, 255.528 67.553 C 260.382 65.525, 262.613 60.402, 260.668 55.750 C 259.921 53.962, 258.635 51.940, 257.810 51.256 C 255.741 49.541, 250.930 48.870, 248.388 49.942 M 182.168 115.603 C 173.740 119.803, 169.595 127.166, 170.118 137.009 L 170.384 142.037 154.192 158.337 C 145.286 167.302, 137.901 174.831, 137.781 175.069 C 137.660 175.306, 137.323 192.150, 137.031 212.500 L 136.500 249.500 89.925 249.760 L 43.350 250.020 40.215 246.118 C 36.006 240.881, 29.829 238, 22.806 238 C 12.392 238, 4.341 243.744, 1.541 253.174 C -0.400 259.709, -0.402 263.102, 1.531 267.728 C 5.478 277.176, 12.683 282.016, 22.739 281.978 C 30.202 281.950, 35.818 279.362, 40.115 273.973 L 43.500 269.728 108.500 270.419 L 173.500 271.110 192.758 290.305 L 212.017 309.500 243.920 309.790 L 275.823 310.079 278.544 313.647 C 281.800 317.916, 289.997 321.977, 295.384 321.990 C 315.150 322.040, 325.890 299.747, 313.227 284.952 C 308.641 279.594, 303.086 277.044, 296 277.044 C 288.947 277.044, 283.363 279.590, 278.848 284.864 L 275.308 289 248.436 289 L 221.564 289 201.975 269.500 C 190.379 257.957, 181.593 249.980, 180.443 249.952 C 179.374 249.925, 174 249.812, 168.500 249.702 L 158.500 249.500 158.236 217.027 L 157.972 184.554 171.550 170.950 L 185.128 157.346 190.590 157.799 C 197.566 158.378, 203.416 156.207, 208.262 151.242 C 217.206 142.079, 217.106 129.222, 208.019 119.857 C 200.881 112.501, 191.494 110.956, 182.168 115.603 M 188 131 C 183.809 135.191, 186.708 142, 192.684 142 C 195.341 142, 199 138.388, 199 135.766 C 199 133.282, 194.599 129, 192.045 129 C 190.920 129, 189.100 129.900, 188 131 M 363.500 168.195 C 360.799 169.727, 360.033 171.023, 360.015 174.095 C 359.985 179.280, 366.879 182.001, 370.345 178.171 C 372.061 176.276, 372.514 172.316, 371.235 170.400 C 370.578 169.416, 366.617 166.953, 365.816 167.030 C 365.642 167.047, 364.600 167.571, 363.500 168.195 M 51.735 187.537 C 48.348 190.925, 47.657 194.243, 49.447 198.528 C 51.145 202.591, 56.471 205.422, 60.511 204.408 C 64.279 203.462, 68 198.463, 68 194.346 C 68 186.263, 57.433 181.839, 51.735 187.537 M 441.349 186.176 C 438.183 187.708, 435.565 193.130, 436.394 196.435 C 437.521 200.925, 441.348 204, 445.809 204 C 454.764 204, 458.567 193.908, 451.931 187.750 C 448.820 184.862, 445.182 184.321, 441.349 186.176 M 210.500 199.935 C 199.883 202.520, 193 211.198, 193 222 C 193 234.831, 202.552 244.361, 215.500 244.451 C 222.413 244.499, 229.326 241.160, 233.003 235.996 L 235.136 233 262.786 233 L 290.436 233 310.025 252.500 L 329.614 272 345.807 272 L 362 272 362 305.263 L 362 338.527 348.250 352.178 L 334.500 365.829 326.827 366.180 C 320.120 366.487, 318.609 366.925, 314.827 369.657 C 305.505 376.392, 302.621 389.584, 308.341 399.328 C 315.819 412.066, 333.394 414.540, 343.638 404.296 C 348.410 399.523, 350.293 394.754, 350.268 387.500 L 350.247 381.500 366.124 365.431 C 374.856 356.594, 382.099 349.169, 382.220 348.931 C 382.341 348.694, 382.678 331.400, 382.970 310.500 L 383.500 272.500 425.719 272.239 L 467.939 271.978 472.048 276.437 C 482.839 288.143, 500.975 285.915, 508.292 271.985 C 510.798 267.213, 511.126 265.640, 510.812 259.889 C 510.144 247.676, 502.277 239.864, 489.944 239.167 C 484.017 238.832, 482.530 239.131, 478.080 241.553 C 475.281 243.076, 471.845 245.825, 470.445 247.661 L 467.898 251 403.189 251 L 338.480 251 319.990 232.398 C 309.820 222.167, 300.052 213.167, 298.282 212.398 C 295.765 211.304, 288.614 211, 265.443 211 L 235.822 211 231.516 206.570 C 228.462 203.427, 225.675 201.684, 221.924 200.570 C 216.229 198.879, 215.097 198.816, 210.500 199.935 M 213.465 216.009 C 208.355 217.937, 207.604 223.893, 212.055 227.201 C 215.092 229.458, 219.159 228.439, 221.024 224.955 C 223.521 220.290, 218.347 214.166, 213.465 216.009 M 18.635 255.073 C 16.888 256.447, 16 258.107, 16 260 C 16 263.065, 19.904 267, 22.946 267 C 25.609 267, 29.001 263.186, 28.985 260.211 C 28.966 256.941, 28.194 255.665, 25.316 254.150 C 22.345 252.586, 21.679 252.678, 18.635 255.073 M 484.052 257.445 C 481.254 260.423, 481.838 264.193, 485.467 266.570 C 491.647 270.619, 498.241 262.241, 493 257 C 490.307 254.307, 486.837 254.480, 484.052 257.445 M 291.655 294.829 C 289.228 297.510, 289.526 302.554, 292.223 304.443 C 295.129 306.479, 297.273 306.409, 300.014 304.190 C 304.411 300.629, 301.674 293, 296 293 C 294.520 293, 292.565 293.823, 291.655 294.829 M 51.324 304.439 C 45.224 306.347, 40.625 309.487, 37.695 313.746 C 33.981 319.144, 33 322.351, 33 329.097 C 33 335.672, 34.536 340.214, 38.530 345.451 C 41.334 349.127, 49.930 354, 53.610 354 C 55.391 354, 56.857 355.920, 61.056 363.750 C 110.217 455.417, 213.875 499.060, 313.443 470.012 C 368.438 453.968, 415.557 415.307, 442.579 364.058 C 446.884 355.891, 447.553 355.119, 450.847 354.501 C 462.143 352.382, 472 340.799, 472 329.644 C 472 320.380, 465.799 310.055, 457.643 305.739 C 451.842 302.669, 440.191 302.642, 434.500 305.686 C 421.460 312.659, 416.427 327.635, 422.846 340.361 L 425.693 346.004 419.492 356.938 C 410.769 372.319, 403.119 382.630, 391.112 395.192 C 364.565 422.965, 333.475 441.067, 297.099 449.929 C 285.546 452.744, 264.442 455.775, 263.431 454.764 C 263.139 454.472, 262.933 438.555, 262.974 419.393 C 263.043 387.470, 263.194 384.475, 264.775 383.628 C 269.304 381.202, 274.985 373.858, 276.582 368.365 C 283.678 343.956, 254.482 325.056, 235.189 341.571 C 227.510 348.143, 224.280 358.785, 227.008 368.527 C 228.372 373.402, 235.622 382.428, 239.045 383.514 C 240.937 384.115, 241 385.285, 241 419.705 L 241 455.276 233.250 454.594 C 214.958 452.983, 191.054 446.558, 172.500 438.264 C 157.893 431.734, 157.812 433.733, 173.319 418.087 C 180.725 410.614, 187.283 403.517, 187.892 402.316 C 188.605 400.911, 189 392.131, 189 377.709 L 189 355.286 193.887 350.393 C 203.412 340.856, 203.512 328.244, 194.135 318.855 C 175.994 300.691, 147.143 321.833, 158.626 344.877 C 160.167 347.970, 162.641 351.046, 164.614 352.323 L 167.975 354.500 167.988 374.014 L 168 393.528 154.559 406.941 L 141.118 420.354 136.894 417.427 C 116.697 403.432, 92.884 375.438, 80.665 351.326 L 78.049 346.164 80.775 341.332 C 84.393 334.917, 84.638 323.737, 81.299 317.432 C 78.183 311.548, 71.979 306.368, 65.878 304.556 C 59.665 302.711, 56.921 302.689, 51.324 304.439 M 51.789 321.898 C 49.105 324.296, 48.545 325.520, 48.545 329 C 48.545 332.480, 49.105 333.704, 51.789 336.102 C 56.259 340.097, 60.812 340.034, 64.923 335.923 C 69.946 330.900, 68.706 323.385, 62.316 320.117 C 58.681 318.258, 55.203 318.846, 51.789 321.898 M 442.500 319.945 C 439.362 321.230, 436.964 324.444, 436.358 328.181 C 435.914 330.919, 436.331 332.240, 438.428 334.732 C 443.423 340.668, 451.640 339.499, 454.592 332.434 C 456.610 327.604, 454.474 322.514, 449.568 320.464 C 445.638 318.822, 445.305 318.797, 442.500 319.945 M 174 330 C 170.112 333.888, 172.899 341, 178.311 341 C 181.338 341, 185 337.523, 185 334.650 C 185 331.578, 181.481 328, 178.461 328 C 177.107 328, 175.100 328.900, 174 330 M 248.378 352.437 C 246.661 353.184, 244.524 354.842, 243.628 356.120 C 238.920 362.843, 245.624 372.340, 253.808 370.542 C 262.827 368.561, 264.049 356.008, 255.568 352.464 C 251.459 350.747, 252.254 350.750, 248.378 352.437 M 324.400 382.765 C 320.243 385.541, 320.929 392.262, 325.548 394.018 C 329.893 395.670, 333.956 392.726, 333.985 387.905 C 334.011 383.457, 328.106 380.291, 324.400 382.765" stroke="none" fill="black" fill-rule="evenodd"/>
</svg>