<svg viewBox="0 0 38 30" xmlns="http://www.w3.org/2000/svg">
<path d="M31.4994 13.6025C30.8094 13.6025 30.2494 13.0425 30.2494 12.3525C30.2494 8.84626 28.8844 5.55126 26.4056 3.07126C25.9169 2.58251 25.9169 1.79251 26.4056 1.30376C26.8944 0.815007 27.6844 0.815007 28.1731 1.30376C31.1244 4.25501 32.7494 8.17876 32.7494 12.3525C32.7494 13.0425 32.1894 13.6025 31.4994 13.6025Z"/>
<path d="M6.5 13.6025C5.81 13.6025 5.25 13.0425 5.25 12.3525C5.25 8.17876 6.875 4.25501 9.82625 1.30376C10.315 0.815007 11.105 0.815007 11.5938 1.30376C12.0825 1.79251 12.0825 2.58251 11.5938 3.07126C9.115 5.55001 7.75 8.84626 7.75 12.3525C7.75 13.0425 7.19 13.6025 6.5 13.6025Z"/>
<path d="M30.7238 21.1413C28.8338 19.5438 27.75 17.2087 27.75 14.735V11.25C27.75 6.85125 24.4825 3.21 20.25 2.6V1.25C20.25 0.55875 19.69 0 19 0C18.31 0 17.75 0.55875 17.75 1.25V2.6C13.5163 3.21 10.25 6.85125 10.25 11.25V14.735C10.25 17.2087 9.16625 19.5437 7.265 21.1512C6.77875 21.5675 6.5 22.1725 6.5 22.8125C6.5 24.0187 7.48125 25 8.6875 25H29.3125C30.5188 25 31.5 24.0187 31.5 22.8125C31.5 22.1725 31.2213 21.5675 30.7238 21.1413Z"/>
<path d="M18.9988 30C21.2625 30 23.1562 28.3863 23.5913 26.25H14.4062C14.8413 28.3863 16.735 30 18.9988 30Z"/>
</svg>
