<svg viewBox="0 0 14 14" xmlns="http://www.w3.org/2000/svg">
<circle cx="7" cy="7" r="7" />
<path d="M10.4715 5.04352C9.87898 5.68774 9.11723 6.1748 8.50783 6.80333C8.44012 6.86615 8.38933 6.92903 8.32162 6.99188C8.8972 7.62035 9.5066 8.24885 10.0991 8.87735C10.4207 9.20732 10.81 10.0087 10.1837 10.3072C9.52353 10.6214 8.8972 10.1972 8.38936 9.82011C7.8646 9.42729 7.37369 8.98734 6.93356 8.53168C6.44266 9.06591 5.93482 9.58442 5.3762 10.0715C4.96988 10.4172 3.88649 11.3756 3.27712 10.8414C2.68464 10.3543 3.15862 9.56871 3.61568 9.16018C3.66646 9.11304 3.73417 9.09733 3.80188 9.11304C4.54671 8.5631 5.17304 7.91889 5.78244 7.24325C5.00376 6.30052 4.29279 5.31061 3.51411 4.39928C3.48025 4.36786 3.48025 4.33646 3.48025 4.28932C3.15862 4.06934 2.98935 3.56654 3.27712 3.28372C3.81881 2.74946 4.51285 3.06374 5.03762 3.45653C5.86708 4.05361 6.5442 4.90208 7.20438 5.70345C7.71222 5.18493 8.23698 4.69785 8.84638 4.27361C9.33729 3.92793 10.1159 3.40942 10.7423 3.75509C11.3348 4.06934 10.7592 4.74498 10.4715 5.04352ZM5.93479 8.70452C5.93479 8.73594 5.91787 8.76737 5.90094 8.78308C5.83323 8.86164 5.74859 8.95592 5.68088 9.05019V9.0659C5.8163 8.90878 5.95172 8.73594 6.08714 8.57882C6.03633 8.61024 5.98558 8.65738 5.93479 8.70452ZM7.67833 8.61024C7.62755 8.5631 7.5937 8.50025 7.54291 8.45312C7.49213 8.42169 7.42442 8.37455 7.37363 8.34313C7.4752 8.4374 7.57677 8.54739 7.67833 8.64167C7.67833 8.62595 7.67833 8.62595 7.67833 8.61024Z" fill="white"/>
</svg>
