<svg viewBox="0 0 30 30" xmlns="http://www.w3.org/2000/svg">
<path d="M29.1206 28.2422H28.2417V27.3633C28.2417 26.8776 27.8487 26.4844 27.3628 26.4844H2.63672C2.1508 26.4844 1.75781 26.8776 1.75781 27.3633V28.2422H0.878906C0.393219 28.2422 0 28.6354 0 29.1211C0 29.607 0.393219 30 0.878906 30H29.1206C29.6066 30 29.9995 29.607 29.9995 29.1211C29.9995 28.6354 29.6066 28.2422 29.1206 28.2422Z"/>
<path d="M15 5.33252C14.5152 5.33252 14.1211 5.72643 14.1211 6.21143C14.1211 6.6962 14.5152 7.0901 15 7.0901C15.485 7.0901 15.8789 6.6962 15.8789 6.21143C15.8789 5.72643 15.485 5.33252 15 5.33252Z"/>
<path d="M29.9539 10.0635C30.0741 9.70482 29.9505 9.30908 29.6476 9.08249L15.5268 0.176468C15.2144 -0.0588226 14.7852 -0.0588226 14.4728 0.176468L0.351913 9.08249C0.0488731 9.30908 -0.0747232 9.70482 0.0454398 10.0635C0.164687 10.4224 0.500457 10.6643 0.878799 10.6643H29.1208C29.4991 10.6643 29.8346 10.4224 29.9539 10.0635ZM14.9997 8.90648C13.5458 8.90648 12.3629 7.66525 12.3629 6.2114C12.3629 4.75731 13.5458 3.57468 14.9997 3.57468C16.4535 3.57468 17.6364 4.75731 17.6364 6.2114C17.6364 7.66525 16.4535 8.90648 14.9997 8.90648Z"/>
<path d="M3.51562 17.6956H7.08984V24.7266H3.51562V17.6956Z"/>
<path d="M22.9688 17.6956H26.4841V24.7266H22.9688V17.6956Z"/>
<path d="M13.2422 17.6956H16.7578V24.7266H13.2422V17.6956Z"/>
<path d="M28.2417 15.0588V12.4221H1.75781V15.0588C1.75781 15.5445 2.1508 15.9377 2.63672 15.9377H27.3628C27.8487 15.9377 28.2417 15.5445 28.2417 15.0588Z"/>
</svg>
