<svg viewBox="0 0 30 30" xmlns="http://www.w3.org/2000/svg">
<path fill-rule="evenodd" clip-rule="evenodd" d="M16.3375 4.03304C15.5099 3.55521 14.4901 3.5552 13.6625 4.03305L6.17115 8.35818C5.3435 8.83602 4.83365 9.71911 4.83365 10.6748V19.325C4.83365 20.2807 5.34348 21.1638 6.17115 21.6417C6.17116 21.6417 6.17118 21.6417 6.17119 21.6417L13.6625 25.9668L13.6625 25.9668C14.4902 26.4447 15.5099 26.4447 16.3374 25.9668L16.3375 25.9668L23.8288 21.6417C24.6565 21.1638 25.1663 20.2807 25.1663 19.325V10.6748C25.1663 9.71907 24.6565 8.83602 23.8288 8.3582L23.8288 8.35818L16.3375 4.03305L16.3375 4.03304ZM17.3375 2.301C15.8911 1.46588 14.1089 1.4659 12.6625 2.301L5.17115 6.62613L5.64379 7.44476L5.17115 6.62613C3.72471 7.46124 2.83365 9.00458 2.83365 10.6748V19.325C2.83365 20.9953 3.72471 22.5386 5.17111 23.3737L5.17115 23.3738L12.6625 27.6988C14.1089 28.534 15.8911 28.5341 17.3375 27.6989C17.3375 27.6988 17.3375 27.6988 17.3376 27.6988L24.8288 23.3738L24.3468 22.5389L24.8288 23.3737C26.2754 22.5386 27.1663 20.9952 27.1663 19.325V10.6748C27.1663 9.00463 26.2754 7.46127 24.8288 6.62613C24.8288 6.62612 24.8288 6.62612 24.8288 6.62611L17.3375 2.30101C17.3375 2.301 17.3375 2.301 17.3375 2.301Z"/>
<path d="M5.97528 17.5501H9.28892V16.87H6.76535V15.2668H9.08692V14.5893H6.76535V12.9938H9.25824V12.3137H5.97528V17.5501ZM13.8666 12.3137H10.6016V17.5501H11.3916V12.9938H13.8666V12.3137ZM15.045 17.5501H15.835V15.7091H16.9089C18.1234 15.7091 18.7243 14.9753 18.7243 14.0089C18.7243 13.045 18.1285 12.3137 16.9114 12.3137H15.045V17.5501ZM15.835 15.0392V12.9913H16.8271C17.6095 12.9913 17.9292 13.4157 17.9292 14.0089C17.9292 14.6021 17.6095 15.0392 16.8373 15.0392H15.835ZM19.9384 17.5501H20.7285V15.2668H23.3391V17.5501H24.1317V12.3137H23.3391V14.5893H20.7285V12.3137H19.9384V17.5501Z"/>
</svg>
