<svg viewBox="0 0 34 40" xmlns="http://www.w3.org/2000/svg">
<path d="M22.1121 1.09473L32.6767 11.6586H25.7238C23.7321 11.6586 22.1121 10.0383 22.1121 8.04611V1.09473Z" />
<path d="M25.0037 36.3875C25.0037 38.3793 23.3813 40 21.3897 40H3.84489C1.85249 40 0.232422 38.3793 0.232422 36.3875V10.0693C0.232422 8.07688 1.85249 6.45605 3.84489 6.45605H8.22656H11.7964V14.5019C11.7964 17.3474 14.1108 19.6618 16.9563 19.6618H25.0037V34.3172V36.3875Z" />
<path d="M23.9095 18.1145H16.9562C14.9648 18.1145 13.3438 16.4946 13.3438 14.502V7.55029L23.9095 18.1145Z" />
<path d="M30.1594 33.5435H26.5515V18.8882C26.5515 18.8704 26.5416 18.8542 26.5401 18.8364C26.5356 18.7699 26.5226 18.7072 26.5015 18.6438C26.4924 18.6181 26.4849 18.5928 26.4736 18.5663C26.4365 18.485 26.3896 18.4076 26.3246 18.3419V18.3412C26.3231 18.3412 26.3223 18.3404 26.3223 18.3404L13.1176 5.13539C13.0502 5.06896 12.9721 5.02177 12.8894 4.98389C12.8679 4.97358 12.8445 4.96728 12.8221 4.95973C12.7557 4.93633 12.6885 4.92274 12.6178 4.91897C12.6015 4.91708 12.5868 4.90877 12.5698 4.90877H9V3.61322C9 1.6212 10.6215 0 12.6132 0H20.5642V8.04623C20.5642 10.8918 22.8792 13.2062 25.7249 13.2062H33.7704V29.9318C33.7719 31.9234 32.151 33.5435 30.1594 33.5435Z" />
</svg>
