<svg viewBox="0 0 20 20" xmlns="http://www.w3.org/2000/svg">
<path d="M18.0146 2.37824L10.1697 0.0247266C10.0599 -0.00824219 9.94281 -0.00824219 9.83293 0.0247266L1.98785 2.37824C1.74004 2.45258 1.57031 2.6807 1.57031 2.93945V11.569C1.57031 12.6914 2.02473 13.8404 2.92086 14.984C3.60527 15.8575 4.55219 16.7345 5.7352 17.5909C7.72258 19.0295 9.67957 19.912 9.76191 19.9488C9.83805 19.9829 9.91969 20 10.0013 20C10.083 20 10.1646 19.983 10.2407 19.9488C10.323 19.912 12.28 19.0295 14.2674 17.5909C15.4504 16.7345 16.3973 15.8575 17.0817 14.984C17.9778 13.8404 18.4322 12.6914 18.4322 11.569V2.93945C18.4322 2.6807 18.2625 2.45258 18.0146 2.37824Z"/>
</svg>
