<svg viewBox="0 0 20 20" xmlns="http://www.w3.org/2000/svg">
    <path d="M8 14.9923C9.70543 14.9923 11.2558 14.3876 12.4651 13.3644L17.8915 18.7907C18.0155 18.9147 18.1705 18.9768 18.3411 18.9768C18.5116 18.9768 18.6667 18.9147 18.7907 18.7907C19.0388 18.5427 19.0388 18.1395 18.7907 17.8915L13.3643 12.4651C14.3721 11.2558 14.9922 9.68994 14.9922 8.00001C14.9922 4.13955 11.8605 1.00777 8 1.00777C4.15504 1.00777 1.00775 4.15505 1.00775 8.00001C1.00775 11.8605 4.15504 14.9923 8 14.9923ZM8 2.27908C11.1628 2.27908 13.7209 4.85273 13.7209 8.00001C13.7209 11.1628 11.1628 13.7209 8 13.7209C4.83721 13.7209 2.27907 11.1473 2.27907 8.00001C2.27907 4.85273 4.85271 2.27908 8 2.27908Z"/>
</svg>
