<svg viewBox="0 0 30 30" xmlns="http://www.w3.org/2000/svg">
    <path d="M23.5437 1.91388H6.45631C2.89671 1.91388 0 4.87384 0 8.51119V15.0462C0 18.6836 2.89671 21.6435 6.45631 21.6435H17.2568L25.1083 28.0861V21.4449C27.9483 20.7216 30 18.1068 30 15.0462V8.51119C30 4.87384 27.1033 1.91388 23.5437 1.91388ZM6.90857 14.5967C6.14412 14.5967 5.46294 14.4301 5.02169 14.1912L5.34398 12.8893C5.67814 13.0926 6.3712 13.3315 6.90863 13.3315C7.45794 13.3315 7.68502 13.1402 7.68502 12.8417C7.68502 12.5423 7.50557 12.3995 6.82537 12.1725C5.61869 11.766 5.15271 11.1096 5.16459 10.4165C5.16459 9.32976 6.09661 8.5058 7.54133 8.5058C8.22245 8.5058 8.83224 8.66051 9.19016 8.83996L8.86788 10.0942C8.6051 9.95045 8.10343 9.75913 7.60169 9.75913C7.15947 9.75913 6.90863 9.93857 6.90863 10.237C6.90863 10.5117 7.13565 10.6555 7.85253 10.9063C8.96308 11.2881 9.42906 11.8502 9.441 12.7099C9.44094 13.7966 8.58122 14.5967 6.90857 14.5967ZM19.3662 14.4777H17.5983V11.3008C17.5983 10.4521 17.3227 9.96233 16.7377 9.96233C16.3202 9.96233 16.0209 10.2489 15.9018 10.5959C15.8542 10.7268 15.8304 10.9182 15.8304 11.0619V14.4777H14.0626V11.2047C14.0626 10.464 13.7998 9.96233 13.2258 9.96233C12.7607 9.96233 12.4851 10.3212 12.378 10.6197C12.3185 10.7625 12.3066 10.93 12.3066 11.0738V14.4778H10.5388V10.4998C10.5388 9.77198 10.5149 9.15031 10.4911 8.6367H12.0201L12.1034 9.42496H12.1391C12.3899 9.0551 12.9036 8.5058 13.907 8.5058C14.6595 8.5058 15.2565 8.88759 15.5073 9.49641H15.5311C15.7463 9.19794 16.009 8.95898 16.2837 8.79239C16.6069 8.60106 16.9648 8.50586 17.3952 8.50586C18.5176 8.50586 19.3663 9.29413 19.3663 11.0373V14.4777H19.3662ZM22.3618 14.5967C21.5973 14.5967 20.9161 14.4301 20.4749 14.1912L20.7972 12.8893C21.1313 13.0926 21.8244 13.3315 22.3618 13.3315C22.9111 13.3315 23.1382 13.1402 23.1382 12.8417C23.1382 12.5423 22.9588 12.3995 22.2785 12.1725C21.0718 11.766 20.6058 11.1096 20.6177 10.4165C20.6177 9.32976 21.5497 8.5058 22.9944 8.5058C23.6756 8.5058 24.2844 8.66051 24.6433 8.83996L24.321 10.0942C24.0582 9.95045 23.5566 9.75913 23.0548 9.75913C22.6126 9.75913 22.3618 9.93857 22.3618 10.237C22.3618 10.5117 22.5888 10.6555 23.3057 10.9063C24.4162 11.2881 24.8822 11.8502 24.8941 12.7099C24.8941 13.7966 24.0344 14.5967 22.3618 14.5967Z"/>
</svg>
