<svg viewBox="0 0 24 24" xmlns="http://www.w3.org/2000/svg">
<path d="M10.1957 5.30438H18.6739C18.8542 5.30438 19 5.15831 19 4.97831C19 4.79831 18.8542 4.65224 18.6739 4.65224H10.1957C10.0157 4.65224 9.86963 4.79831 9.86963 4.97831C9.86963 5.15831 10.0157 5.30438 10.1957 5.30438Z"/>
<path d="M18.6739 9.86957H10.1957C10.0157 9.86957 9.86963 10.0156 9.86963 10.1956C9.86963 10.3756 10.0157 10.5217 10.1957 10.5217H18.6739C18.8542 10.5217 19 10.3756 19 10.1956C19 10.0156 18.8542 9.86957 18.6739 9.86957Z"/>
<path d="M10.1957 7.91308H16.0652C16.2456 7.91308 16.3913 7.767 16.3913 7.587C16.3913 7.40701 16.2456 7.26093 16.0652 7.26093H10.1957C10.0157 7.26093 9.86963 7.40701 9.86963 7.587C9.86963 7.76697 10.0157 7.91308 10.1957 7.91308Z"/>
<path d="M16.0652 17.6956H10.1957C10.0157 17.6956 9.86963 17.8414 9.86963 18.0217C9.86963 18.202 10.0157 18.3478 10.1957 18.3478H16.0652C16.2456 18.3478 16.3913 18.202 16.3913 18.0217C16.3913 17.8414 16.2456 17.6956 16.0652 17.6956Z"/>
<path d="M18.6739 15.0869H10.1957C10.0157 15.0869 9.86963 15.2327 9.86963 15.413C9.86963 15.5933 10.0157 15.7391 10.1957 15.7391H18.6739C18.8542 15.7391 19 15.5933 19 15.413C19 15.2327 18.8542 15.0869 18.6739 15.0869Z"/>
<path d="M10.1957 13.1304H16.0652C16.2456 13.1304 16.3913 12.9847 16.3913 12.8044C16.3913 12.624 16.2456 12.4783 16.0652 12.4783H10.1957C10.0157 12.4783 9.86963 12.624 9.86963 12.8044C9.86963 12.9847 10.0157 13.1304 10.1957 13.1304Z"/>
<path d="M8.46971 6.51314C8.34221 6.64064 8.13614 6.64064 8.00864 6.51314L6.60875 5.11326V18.5C6.36022 18.8193 6.21802 18.8139 5.95658 18.5V5.11323L4.5567 6.51311C4.4292 6.64061 4.22312 6.64061 4.09562 6.51311C3.96813 6.38561 3.96813 6.17954 4.09562 6.05204L6.05048 4.09719C6.05633 4.0913 6.06222 4.08576 6.06841 4.08023C6.11897 4.03619 6.18026 4.01044 6.24287 4.00262C6.26311 4.00001 6.284 3.99934 6.30454 4.00066C6.3805 4.00587 6.45518 4.03751 6.51322 4.09555L8.46971 6.05207C8.53328 6.11564 8.56525 6.19914 8.56525 6.28261C8.56525 6.36607 8.53328 6.44957 8.46971 6.51314Z"/>
</svg>
