<svg viewBox="0 0 24 24" xmlns="http://www.w3.org/2000/svg">
<path d="M10.1957 5.30438H18.6739C18.8542 5.30438 19 5.15831 19 4.97831C19 4.79831 18.8542 4.65224 18.6739 4.65224H10.1957C10.0157 4.65224 9.86963 4.79831 9.86963 4.97831C9.86963 5.15831 10.0157 5.30438 10.1957 5.30438Z"/>
<path d="M18.6739 9.86957H10.1957C10.0157 9.86957 9.86963 10.0156 9.86963 10.1956C9.86963 10.3756 10.0157 10.5217 10.1957 10.5217H18.6739C18.8542 10.5217 19 10.3756 19 10.1956C19 10.0156 18.8542 9.86957 18.6739 9.86957Z"/>
<path d="M10.1957 7.91308H16.0652C16.2456 7.91308 16.3913 7.76701 16.3913 7.58701C16.3913 7.40701 16.2456 7.26094 16.0652 7.26094H10.1957C10.0157 7.26094 9.86963 7.40701 9.86963 7.58701C9.86963 7.76698 10.0157 7.91308 10.1957 7.91308Z"/>
<path d="M16.0652 17.6956H10.1957C10.0157 17.6956 9.86963 17.8414 9.86963 18.0217C9.86963 18.202 10.0157 18.3478 10.1957 18.3478H16.0652C16.2456 18.3478 16.3913 18.202 16.3913 18.0217C16.3913 17.8414 16.2456 17.6956 16.0652 17.6956Z"/>
<path d="M18.6739 15.0869H10.1957C10.0157 15.0869 9.86963 15.2327 9.86963 15.413C9.86963 15.5933 10.0157 15.7391 10.1957 15.7391H18.6739C18.8542 15.7391 19 15.5933 19 15.413C19 15.2327 18.8542 15.0869 18.6739 15.0869Z"/>
<path d="M10.1957 13.1304H16.0652C16.2456 13.1304 16.3913 12.9847 16.3913 12.8044C16.3913 12.624 16.2456 12.4783 16.0652 12.4783H10.1957C10.0157 12.4783 9.86963 12.624 9.86963 12.8044C9.86963 12.9847 10.0157 13.1304 10.1957 13.1304Z"/>
<path d="M4.09554 16.2243C4.22304 16.0968 4.42911 16.0968 4.55661 16.2243L5.95649 17.6242L5.95649 4.23745C6.20503 3.9182 6.34723 3.92351 6.60867 4.23745L6.60867 17.6242L8.00855 16.2243C8.13605 16.0968 8.34212 16.0968 8.46962 16.2243C8.59712 16.3518 8.59712 16.5579 8.46962 16.6854L6.51477 18.6403C6.50891 18.6461 6.50302 18.6517 6.49684 18.6572C6.44628 18.7013 6.38499 18.727 6.32238 18.7348C6.30214 18.7374 6.28125 18.7381 6.26071 18.7368C6.18474 18.7316 6.11007 18.6999 6.05203 18.6419L4.09554 16.6854C4.03196 16.6218 4 16.5383 4 16.4548C4 16.3714 4.03196 16.2879 4.09554 16.2243Z"/>
</svg>
