<svg viewBox="0 0 10 10" xmlns="http://www.w3.org/2000/svg">
    <path d="M9.47156 3.96854L6.28752 3.67947L5.02976 0.734787C5.02973 0.734727 5.02978 0.734847 5.02976 0.734787C5.02408 0.721736 5.01267 0.714687 5.00001 0.714687C4.987 0.714687 4.97628 0.721783 4.97118 0.73373L3.71296 3.67947L0.529207 3.96847C0.529157 3.96847 0.529258 3.96846 0.529207 3.96847C0.517068 3.96965 0.506007 3.97766 0.501502 3.99073C0.497612 4.00337 0.50156 4.01643 0.510855 4.0246M0.510855 4.0246L2.91684 6.13431L2.20764 9.2579C2.20763 9.25793 2.20764 9.25787 2.20764 9.2579C2.20447 9.27206 2.20989 9.28432 2.21953 9.29128L2.22052 9.292C2.22586 9.29588 2.23161 9.29775 2.23828 9.29775C2.24367 9.29775 2.24892 9.29639 2.25407 9.29331L5.00004 7.65142L7.74525 9.29316C7.7453 9.29319 7.7452 9.29313 7.74525 9.29316C7.75625 9.29966 7.76964 9.29915 7.78007 9.29159C7.7897 9.28463 7.79556 9.27218 7.79242 9.25804C7.79241 9.25799 7.79243 9.25809 7.79242 9.25804L7.08319 6.13431L9.48905 4.02471C9.49859 4.01634 9.5026 4.00326 9.49826 3.98988C9.49409 3.97748 9.48348 3.96962 9.47156 3.96854M9.97385 3.83558C10.0397 4.03853 9.97881 4.26016 9.81882 4.40055L7.6367 6.31395L8.2801 9.14771C8.32717 9.35607 8.2463 9.57153 8.07341 9.6965C7.90091 9.82147 7.67134 9.83147 7.48876 9.72237L5.00001 8.234L2.51081 9.72237C2.42665 9.77272 2.33243 9.79775 2.23828 9.79775C2.12872 9.79775 2.01954 9.76402 1.92661 9.6965C1.75373 9.57153 1.67286 9.35607 1.71993 9.14771L2.36333 6.31395L0.181207 4.40055C0.0211398 4.26016 -0.0396675 4.03807 0.0261753 3.83558C0.0923996 3.63348 0.271617 3.49012 0.48326 3.47058L3.37042 3.20851L4.51127 0.537569C4.59496 0.341337 4.78669 0.214687 5.00001 0.214687C5.21334 0.214687 5.40499 0.341337 5.48922 0.537569L6.63006 3.20851L9.51677 3.47058C9.72841 3.48973 9.90801 3.63309 9.97385 3.83558Z"/>
</svg>
