<svg viewBox="0 0 25 26" xmlns="http://www.w3.org/2000/svg">
<path d="M0 14.1093C0 11.0948 2.34739 8.62034 5.28895 8.4814L5.55 8.47525H11.5375V16.1061C11.5375 16.6529 11.9625 17.0854 12.5 17.0854C12.9812 17.0854 13.389 16.722 13.4536 16.2402L13.4625 16.1061V8.47525H19.4375C22.4125 8.47525 24.8567 10.8636 24.9939 13.8681L25 14.1348V20.3284C25 23.3553 22.6526 25.8302 19.711 25.9691L19.45 25.9752H5.5625C2.57536 25.9752 0.142622 23.5749 0.00604752 20.5814L0 20.3157V14.1093ZM8.18775 5.3C7.83548 4.95909 7.80345 4.4219 8.08228 4.0453L8.17525 3.9375L11.8127 0.2875C12.0002 0.1 12.2378 0 12.5002 0C12.7003 0 12.9003 0.064 13.0618 0.1856L13.1753 0.2875L16.8127 3.9375C17.0002 4.125 17.1003 4.375 17.1003 4.6125C17.1003 4.8625 17.0002 5.1125 16.8127 5.3C16.4718 5.64091 15.9347 5.6719 15.5581 5.39298L15.4502 5.3L13.4627 3.3V8.475H11.5378V3.3L9.55025 5.3C9.17525 5.675 8.56275 5.675 8.18775 5.3Z"/>
</svg>
