<svg viewBox="0 0 13 13" xmlns="http://www.w3.org/2000/svg">
<path d="M9.16406 2.31055H9.92578V4.5957H9.16406V2.31055Z" />
<path d="M10.6875 1.54883H11.4492V5.35742H10.6875V1.54883Z" />
<path d="M12.2383 2.31055H13V4.5957H12.2383V2.31055Z" />
<path d="M0 2.31055H0.761719V4.5957H0V2.31055Z" />
<path d="M1.54688 1.54883H2.30859V5.35742H1.54688V1.54883Z" />
<path d="M3.07031 2.31055H3.83203V4.5957H3.07031V2.31055Z" />
<path d="M9.16406 7.26172C9.16406 8.60117 8.16748 9.70249 6.87891 9.88925V9.12743C7.74705 8.95049 8.40234 8.18124 8.40234 7.26172V6.88086H6.87891V6.11914H8.40234V5.35742H6.87891V4.5957H8.40234V3.83398H6.87891V3.07227H8.40234V2.69141C8.40234 1.64146 7.54799 0.787109 6.49805 0.787109C5.4481 0.787109 4.59375 1.64146 4.59375 2.69141V3.07227H6.11719V3.83398H4.59375V4.5957H6.11719V5.35742H4.59375V6.11914H6.11719V6.88086H4.59375V7.26172C4.59375 8.18124 5.24905 8.95049 6.11719 9.12743V9.88925C4.82861 9.70249 3.83203 8.60117 3.83203 7.26172V6.11914H3.07031V7.26172C3.07031 9.02151 4.40798 10.4587 6.11719 10.651V11.4512H4.59375V12.2129H8.40234V11.4512H6.87891V10.651C8.58811 10.4587 9.92578 9.02151 9.92578 7.26172V6.11914H9.16406V7.26172Z" />
</svg>
