<svg viewBox="0 0 20 20" xmlns="http://www.w3.org/2000/svg">
<path d="M4.67355 4.05545L12.6466 1.87914L12.2244 1.02569C11.9481 0.470943 11.2743 0.241858 10.7196 0.518107L3.58203 4.05545H4.67355Z"/>
<path d="M15.1214 1.94189C15.0226 1.94189 14.9237 1.95537 14.8249 1.98232L12.9518 2.49439L7.23145 4.05531H13.7244H16.5543L16.2039 2.77064C16.0692 2.2698 15.6155 1.94189 15.1214 1.94189Z"/>
<path d="M17.7249 4.84131H17.4688H17.1207H16.7726H14.1157H4.35261H3.07243H1.99439H1.7945H1.12521C0.770354 4.84131 0.453678 5.00526 0.247052 5.26354C0.152723 5.38258 0.0808535 5.51958 0.0404267 5.67006C0.0157215 5.76439 0 5.86321 0 5.96427V6.09903V7.37921V18.4764C0 19.0963 0.503088 19.5993 1.12296 19.5993H17.7226C18.3425 19.5993 18.8456 19.0963 18.8456 18.4764V15.3433H12.1819C11.1286 15.3433 10.2729 14.4876 10.2729 13.4342V12.4056V12.0575V11.7094V10.9368C10.2729 10.4202 10.4795 9.95082 10.8141 9.6072C11.1106 9.30173 11.5081 9.0951 11.9528 9.04344C12.027 9.03448 12.1033 9.02997 12.1797 9.02997H17.9113H18.2594H18.6075H18.8456V5.96427C18.8478 5.3444 18.3448 4.84131 17.7249 4.84131Z"/>
<path d="M19.6336 10.1038C19.5213 10.0005 19.3888 9.92184 19.2405 9.87019C19.126 9.83203 19.0047 9.80957 18.8767 9.80957H18.8475H18.825H18.4769H17.2214H12.1816C11.5617 9.80957 11.0586 10.3126 11.0586 10.9325V11.4917V11.8399V12.188V13.4322C11.0586 14.0521 11.5617 14.5552 12.1816 14.5552H18.8475H18.8767C19.0047 14.5552 19.126 14.5327 19.2405 14.4946C19.3888 14.4451 19.5213 14.3643 19.6336 14.261C19.8582 14.0566 19.9996 13.7601 19.9996 13.4323V10.9325C19.9996 10.6046 19.8582 10.3081 19.6336 10.1038ZM14.5263 12.4058C14.5263 12.7158 14.2748 12.9673 13.9648 12.9673H13.592C13.2821 12.9673 13.0305 12.7158 13.0305 12.4058V12.033C13.0305 11.8533 13.1136 11.6939 13.2461 11.5928C13.3427 11.5187 13.4618 11.4715 13.592 11.4715H13.6863H13.9648C14.2748 11.4715 14.5263 11.7231 14.5263 12.033V12.4058Z"/>
</svg>
